<svg xmlns="http://www.w3.org/2000/svg" width="48.197" height="41.969" viewBox="0 0 48.197 41.969">
  <g id="beskidzka_oddanie" transform="translate(0 -33.079)">
    <g id="Group_461" data-name="Group 461" transform="translate(0 33.079)">
      <path id="Path_198" data-name="Path 198" d="M47.67,62.7l-1.476-1.385a.69.69,0,0,0-.945,1.007l1.476,1.385a.3.3,0,0,1,.051.368l-.342.568a.3.3,0,0,1-.456.063l-1.006-.945a.69.69,0,0,0-1.163.5l0,9.4H40.489V66.915a1.505,1.505,0,0,0-1.5-1.5H35.818a1.505,1.505,0,0,0-1.5,1.5v6.751H30.486l0-9.4a.69.69,0,0,0-1.163-.5l-1.006.945a.3.3,0,0,1-.456-.063l-.342-.568a.3.3,0,0,1,.051-.368l2.7-2.537a.69.69,0,0,0,.217-.5l0-4.035a.158.158,0,0,1,.158-.158h1.116a.158.158,0,0,1,.158.158v1.393a.69.69,0,0,0,1.163.5l.412-.387a5.114,5.114,0,0,0,1.541.859,2.189,2.189,0,1,0,.118-1.438,3.96,3.96,0,0,1-.639-.38l2.416-2.271a.32.32,0,0,1,.438,0l4.714,4.425a.69.69,0,0,0,.945-1.007l-3.787-3.555a15.318,15.318,0,0,0-.941-5.847,17.876,17.876,0,0,0-.955-2.22,11.037,11.037,0,1,0-20.742,2.067L7.77,57.6a.69.69,0,0,0,.976.976l8.54-8.54a11.03,11.03,0,0,0,.695.969l.019.024q.079.1.161.195l.037.044q.074.087.15.172l.049.055c.05.055.1.109.151.164l.05.054q.1.106.2.21t.21.2l.056.052c.054.05.107.1.162.149l.057.05q.084.075.17.148l.047.039q.095.08.191.158l.027.022a11.054,11.054,0,0,0,.967.693L13.08,61.048l-2.492.429a1.284,1.284,0,0,0-1.045,1.045L9.16,64.75l-2.227.384a1.284,1.284,0,0,0-1.045,1.045l-.429,2.492-.6.6-3.47.069.069-3.47,4.237-4.237a.69.69,0,0,0-.976-.976L.447,64.926a1.275,1.275,0,0,0-.375.881L0,69.42a1.281,1.281,0,0,0,1.282,1.307h.025l3.613-.072A1.276,1.276,0,0,0,5.8,70.28l.655-.655a1.275,1.275,0,0,0,.357-.689l.423-2.454L9.463,66.1a1.284,1.284,0,0,0,1.045-1.045l.384-2.228,2.454-.423a1.274,1.274,0,0,0,.689-.357l7.914-7.914a11.11,11.11,0,0,0,8.615.3q.181.343.374.669h-.3A1.539,1.539,0,0,0,29.1,56.639v3.736L26.62,62.707a1.686,1.686,0,0,0-.288,2.087l.342.568a1.677,1.677,0,0,0,2.428.487l0,8.006A1.193,1.193,0,0,0,30.3,75.048h0l9.5,0c.012,0,4.2,0,.036,0l4.167,0a1.194,1.194,0,0,0,1.192-1.193l0-8.006a1.677,1.677,0,0,0,2.427-.489l.342-.568A1.686,1.686,0,0,0,47.67,62.7ZM36.914,59.021a2.711,2.711,0,0,0,1.033-.662.817.817,0,0,1,.006.1.806.806,0,0,1-1.295.642A2.64,2.64,0,0,0,36.914,59.021Zm.074-9.63a14.941,14.941,0,0,1,.87,4.218,1.7,1.7,0,0,0-1.881.3l-2.5,2.346a11.867,11.867,0,0,1-1.661-2.4,11.09,11.09,0,0,0,4.871-5.243Q36.848,48.995,36.989,49.391Zm-6.172,2.176a11.574,11.574,0,0,1-.592-6.872,3.906,3.906,0,1,0-1.4-.148,7.771,7.771,0,0,0-.219,1.213,14.886,14.886,0,0,0,.908,6.266q.208.591.451,1.154a9.71,9.71,0,0,1-7.812-.487l-.021-.013a9.613,9.613,0,0,1-1.523-.991l-.019-.016q-.268-.214-.521-.447l-.052-.048c-.081-.075-.16-.152-.239-.23s-.155-.158-.23-.239l-.048-.051q-.234-.254-.448-.522l-.015-.018a9.609,9.609,0,0,1-.991-1.523l-.013-.021a9.651,9.651,0,1,1,13.189,4.035Q31.006,52.1,30.817,51.568Zm-1.463-8.309a2.536,2.536,0,1,1,2.9-1.434,2.74,2.74,0,0,0-1.361.112A2.931,2.931,0,0,0,29.353,43.259Zm9.755,30.405H35.7v-6.75a.123.123,0,0,1,.123-.123h3.167a.123.123,0,0,1,.123.123Z" transform="translate(0 -33.079)" fill="#fff"/>
    </g>
  </g>
</svg>
