<svg xmlns="http://www.w3.org/2000/svg" width="40.611" height="34.695" viewBox="0 0 40.611 34.695">
  <g id="beskidzka_parking" transform="translate(0 -37.291)">
    <g id="Group_402" data-name="Group 402" transform="translate(0 37.291)">
      <path id="Path_162" data-name="Path 162" d="M63.931,180.483H57.472a1.39,1.39,0,0,0-1.388,1.388v7.3a.595.595,0,0,0,1.19,0v-4.094h6.855v10.448a.2.2,0,0,1-.2.2H57.472a.2.2,0,0,1-.2-.2v-3.577a.595.595,0,0,0-1.19,0v3.577a1.39,1.39,0,0,0,1.388,1.388h6.459a1.39,1.39,0,0,0,1.388-1.388V181.871A1.39,1.39,0,0,0,63.931,180.483Zm.2,3.4H57.274v-2.015a.2.2,0,0,1,.2-.2h6.459a.2.2,0,0,1,.2.2Z" transform="translate(-51.636 -169.125)" fill="#fff"/>
      <path id="Path_163" data-name="Path 163" d="M39.543,42.5H24.7l-1.523-.87a2.019,2.019,0,0,0-1-.265H21.5a.595.595,0,1,0,0,1.19h.681a.825.825,0,0,1,.409.109l1.007.575-2.054,2.2H18.132v-2.88h.587a.595.595,0,1,0,0-1.19h-.841a.988.988,0,0,0-.738-.331H15.528A7.456,7.456,0,0,0,1.609,44.748V66.727H1.388A1.39,1.39,0,0,0,0,68.115V70.6a1.39,1.39,0,0,0,1.388,1.388H16.744A1.39,1.39,0,0,0,18.132,70.6V68.115a1.39,1.39,0,0,0-1.388-1.388h-.221V46.952h.618a.988.988,0,0,0,.738-.331H39.543a1.069,1.069,0,0,0,1.068-1.068V43.565A1.069,1.069,0,0,0,39.543,42.5ZM2.8,44.748a6.266,6.266,0,0,1,11.31-3.718H10.676a3.371,3.371,0,1,0,0,5.922h4.657V66.726H2.8Zm8.448-.757a2.181,2.181,0,1,1-2.181-2.181A2.184,2.184,0,0,1,11.247,43.991Zm5.5,23.926a.2.2,0,0,1,.2.2V70.6a.2.2,0,0,1-.2.2H1.388a.2.2,0,0,1-.2-.2V68.115a.2.2,0,0,1,.2-.2Zm.2-22.154h-5.01a3.362,3.362,0,0,0,0-3.543h5.01Zm6.225-.331L24.8,43.686h3.1l-1.632,1.744Zm4.725,0,1.632-1.744h3.1l-1.632,1.744Zm4.725,0,1.632-1.744h3.1l-1.632,1.744Zm6.8,0H37.343l1.632-1.744h.446Z" transform="translate(0 -37.291)" fill="#fff"/>
      <path id="Path_164" data-name="Path 164" d="M275.758,293.75h-2.033a.595.595,0,0,0,0,1.19h2.033a.595.595,0,0,0,0-1.19Z" transform="translate(-251.466 -273.408)" fill="#fff"/>
      <path id="Path_165" data-name="Path 165" d="M421.82,293.75h-2.033a.595.595,0,1,0,0,1.19h2.033a.595.595,0,0,0,0-1.19Z" transform="translate(-385.944 -273.408)" fill="#fff"/>
      <path id="Path_166" data-name="Path 166" d="M332.873,300.381H327.84a.595.595,0,0,0,0,1.19h5.033a.595.595,0,1,0,0-1.19Z" transform="translate(-301.289 -279.513)" fill="#fff"/>
      <path id="Path_167" data-name="Path 167" d="M243.667,205.218h-2.181v-1.8a1.453,1.453,0,0,0,.934-1.355v-1.813a3.49,3.49,0,0,0-.451-1.72,1.784,1.784,0,0,0-.3-3.543h-1.769l-.245-.833a3,3,0,0,0-2.86-2.14h-8.1a3,3,0,0,0-2.86,2.14l-.245.833h-1.769a1.784,1.784,0,0,0-.3,3.543,3.49,3.49,0,0,0-.451,1.72v1.813a1.453,1.453,0,0,0,.934,1.355v1.8h-2.181a.595.595,0,0,0,0,1.19h21.853a.595.595,0,1,0,0-1.19Zm-2-9.042a.595.595,0,0,1,0,1.19h-.753a3.531,3.531,0,0,0-.385-.234l-.281-.956Zm-14.691-1.687a1.8,1.8,0,0,1,1.719-1.286h8.1a1.8,1.8,0,0,1,1.719,1.286l.664,2.257c-.088-.007-.177-.011-.267-.011h-3.184a1.012,1.012,0,0,0-.677-.257h-4.619a1.012,1.012,0,0,0-.677.257h-3.172c-.09,0-.179,0-.267.011Zm7.848,3.178-.211.718a.372.372,0,0,1-.345.235H231.21a.372.372,0,0,1-.344-.232l-.217-.72h4.172Zm-11-.3a.595.595,0,0,1,0-1.19h1.419l-.281.956a3.539,3.539,0,0,0-.385.234Zm3.3,7.852h-1.928v-1.705h1.928Zm13.182,0h-1.928v-1.705H240.3Zm.934-3.157a.262.262,0,0,1-.262.262h-4.537a.595.595,0,1,0,0,1.19h.747v1.705H228.3v-1.705h5.351a.595.595,0,0,0,0-1.19h-9.141a.262.262,0,0,1-.262-.262v-1.813a2.327,2.327,0,0,1,2.325-2.325h2.908l.249.827c0,.011.007.021.011.031a1.565,1.565,0,0,0,1.467,1.027h3.055a1.563,1.563,0,0,0,1.471-1.039c0-.01.007-.021.01-.031l.24-.815H238.9a2.327,2.327,0,0,1,2.325,2.325v1.813Z" transform="translate(-203.672 -179.741)" fill="#fff"/>
    </g>
  </g>
</svg>
