<svg xmlns="http://www.w3.org/2000/svg" width="45.468" height="35.688" viewBox="0 0 45.468 35.688">
  <g id="beskidzka_garaż" transform="translate(0)">
    <path id="Path_153" data-name="Path 153" d="M44.382,6.741,37.5,4.565a.669.669,0,1,0-.4,1.276l6.882,2.176a.215.215,0,0,1,.151.206v25.7a.423.423,0,0,1-.423.423H40.3V10.2a1.474,1.474,0,0,0-1.473-1.473H6.466A1.474,1.474,0,0,0,4.994,10.2V34.349H1.761a.424.424,0,0,1-.423-.423V8.223a.215.215,0,0,1,.151-.206L22.453,1.382a.926.926,0,0,1,.561,0L34.206,4.927a.669.669,0,0,0,.4-1.276L23.418.106a2.258,2.258,0,0,0-1.368,0L1.085,6.741A1.549,1.549,0,0,0,0,8.224v25.7a1.764,1.764,0,0,0,1.762,1.762H43.705a1.764,1.764,0,0,0,1.762-1.762V8.224a1.549,1.549,0,0,0-1.086-1.483ZM12.3,24.148H23.75a.669.669,0,1,0,0-1.339h-9.6l.638-2.728a1.723,1.723,0,0,1,1.685-1.336H28.68a1.723,1.723,0,0,1,1.685,1.336L31,22.809H26.844a.669.669,0,1,0,0,1.339h6.1a.581.581,0,0,1,.58.58v6.395a.581.581,0,0,1-.58.58H12.3a.67.67,0,0,1-.669-.67V24.818a.67.67,0,0,1,.669-.67ZM30.853,34.343h-1.51a.268.268,0,0,1-.268-.268V33.042h2.09v.989a.313.313,0,0,1-.312.312Zm-16.863-1.3h2.09v.988a.313.313,0,0,1-.312.313h-1.51a.268.268,0,0,1-.268-.268Zm3.429.988v-.988H27.736v1.033a1.588,1.588,0,0,0,.025.274H17.387a1.664,1.664,0,0,0,.032-.319Zm15.054.319a1.664,1.664,0,0,0,.032-.319v-.988h.437a1.921,1.921,0,0,0,1.919-1.919V24.728a1.921,1.921,0,0,0-1.447-1.858h1.319a.669.669,0,1,0,0-1.339H32.078l-.41-1.755a3.057,3.057,0,0,0-2.988-2.371H16.475a3.056,3.056,0,0,0-2.988,2.371l-.41,1.755H10.422a.669.669,0,1,0,0,1.339H11.81a2.012,2.012,0,0,0-1.516,1.947v6.217A2.01,2.01,0,0,0,12.3,33.042h.349v1.033a1.623,1.623,0,0,0,.025.274H6.333V15.567H12.6a.669.669,0,0,0,0-1.339H6.333V10.2a.134.134,0,0,1,.134-.134H38.831a.134.134,0,0,1,.134.134v4.027H15.791a.669.669,0,1,0,0,1.339H38.965V34.349Zm0,0" transform="translate(0)" fill="#fff"/>
    <path id="Path_154" data-name="Path 154" d="M142.1,286.171a2.374,2.374,0,1,0-2.374-2.374A2.377,2.377,0,0,0,142.1,286.171Zm0-3.41a1.036,1.036,0,1,1-1.035,1.036A1.037,1.037,0,0,1,142.1,282.761Zm0,0" transform="translate(-127.319 -256.431)" fill="#fff"/>
    <path id="Path_155" data-name="Path 155" d="M317.652,286.171a2.374,2.374,0,1,0-2.374-2.374A2.377,2.377,0,0,0,317.652,286.171Zm0-3.41a1.036,1.036,0,1,1-1.035,1.036A1.037,1.037,0,0,1,317.652,282.761Zm0,0" transform="translate(-287.28 -256.431)" fill="#fff"/>
    <path id="Path_156" data-name="Path 156" d="M202.593,311.187h7.465a.938.938,0,0,0,.937-.937v-1.618a.938.938,0,0,0-.937-.937h-7.465a.938.938,0,0,0-.937.937v1.618A.938.938,0,0,0,202.593,311.187Zm.4-2.154h6.662v.814h-6.662Zm0,0" transform="translate(-183.749 -280.37)" fill="#fff"/>
  </g>
</svg>
