<svg xmlns="http://www.w3.org/2000/svg" width="45.468" height="44.485" viewBox="0 0 45.468 44.485">
  <path id="beskidzka_metraz" d="M43.092,46.126a.748.748,0,0,1-.529-1.277l.331-.331H8.72l.331.331a.748.748,0,1,1-1.058,1.058L6.4,44.317a.746.746,0,0,1-.219-.538v-.009a.747.747,0,0,1,.328-.619l1.519-1.519a.748.748,0,1,1,1.058,1.058l-.331.331H42.932l-.331-.331a.748.748,0,0,1,1.058-1.058l1.59,1.59a.745.745,0,0,1,.219.538v.009a.747.747,0,0,1-.328.619l-1.519,1.519A.745.745,0,0,1,43.092,46.126Zm-40.735-5.2a.747.747,0,0,1-.619-.328L.22,39.079a.748.748,0,1,1,1.058-1.058l.331.331V4.177l-.331.331A.748.748,0,0,1,.22,3.451l1.59-1.59a.733.733,0,0,1,.538-.219.766.766,0,0,1,.629.328L4.5,3.488A.748.748,0,0,1,3.437,4.546l-.331-.331V38.39l.331-.331A.748.748,0,1,1,4.5,39.117L2.9,40.707a.741.741,0,0,1-.538.219ZM44.72,38.809H8.559a.748.748,0,0,1-.748-.748V2.39a.748.748,0,0,1,.748-.748H30.168a.748.748,0,0,1,.748.748V16.913h13.8a.748.748,0,0,1,.748.748v20.4A.748.748,0,0,1,44.72,38.809Zm-13.836-1.5H43.972V18.41H30.884v18.9Zm-14.334,0H29.388V27.289H16.55Zm-7.242,0h5.745V27.289H9.308ZM15.8,25.793H29.388V17.662a.76.76,0,0,1,.032-.218V9.63H9.308V25.793ZM20.1,8.133H29.42v-5H20.1Zm-10.788,0H18.6v-5H9.308Z" transform="translate(0 -1.641)" fill="#fff"/>
</svg>
