<svg xmlns="http://www.w3.org/2000/svg" width="49.737" height="50.21" viewBox="0 0 49.737 50.21">
  <g id="beskidzka_etap_3" transform="translate(-16 -16)">
    <path id="Path_199" data-name="Path 199" d="M73.674,21.021h2.511v3.347a2.511,2.511,0,1,0,5.021,0V22.695H79.531v1.674a.837.837,0,0,1-1.674,0V19.347a1.674,1.674,0,0,1,3.347,0H79.531v1.674H99.615v5.021a.837.837,0,0,0,.837.837h5.021V36.921h1.674V26.042a.837.837,0,0,0-.245-.592l-5.858-5.858a.837.837,0,0,0-.592-.245H82.879a3.347,3.347,0,1,0-6.695,0H72.837a.837.837,0,0,0-.837.837V40.268h1.674ZM101.289,22.2l3,3h-3Z" transform="translate(-50.142)" fill="#fff"/>
    <path id="Path_200" data-name="Path 200" d="M341.858,370.042H336v1.674h6.695a.837.837,0,0,0,.837-.837V360h-1.674Z" transform="translate(-286.527 -308.016)" fill="#fff"/>
    <path id="Path_201" data-name="Path 201" d="M160.837,384a.837.837,0,0,0-.837.837v4.184a.837.837,0,0,0,.837.837h5.021a.837.837,0,0,0,.837-.837v-4.184a.837.837,0,0,0-.837-.837Zm4.184,4.184h-3.347v-2.51h3.347Z" transform="translate(-128.937 -329.506)" fill="#fff"/>
    <path id="Path_202" data-name="Path 202" d="M104,336h1.674v1.674H104Z" transform="translate(-78.795 -286.527)" fill="#fff"/>
    <path id="Path_203" data-name="Path 203" d="M46.126,260.084c0-2.079-1.15-4.184-3.347-4.184s-3.347,2.1-3.347,4.184c0,.469-.181.671-.589,1.083a3.02,3.02,0,0,0-1.084,2.289,3.126,3.126,0,0,0,.463,1.649H29.389V254.226a.837.837,0,0,0-.837-.837H23.531a.837.837,0,0,0-.837.837v10.879h-2.51V250.328l10.042-4.393,10.042,4.393v4.735h1.674v-4l1.338.586a.837.837,0,0,0,1.172-.767v-4.184a.837.837,0,0,0-.5-.767L30.562,240.07a.837.837,0,0,0-.671,0L16.5,245.928a.837.837,0,0,0-.5.767v4.184a.837.837,0,0,0,1.172.767l1.338-.585v14.045H16v1.674H44.452a3.6,3.6,0,0,0,2.085-.785,3.176,3.176,0,0,0,1.263-2.539,3.02,3.02,0,0,0-1.084-2.289C46.307,260.755,46.126,260.553,46.126,260.084ZM17.674,249.6v-2.357l12.552-5.492,12.552,5.492V249.6l-.837-.366v-.028h-.064l-11.316-4.951a.837.837,0,0,0-.671,0l-11.316,4.951H18.51v.028Zm6.695,5.464h3.347v10.042H24.368Zm20.084,10.042H41.1a1.8,1.8,0,0,1-1.674-1.649c0-.487.183-.692.6-1.11a2.99,2.99,0,0,0,1.075-2.262c0-1.986,1.095-2.51,1.674-2.51,1.324,0,1.674,1.642,1.674,2.51a2.99,2.99,0,0,0,1.075,2.262c.415.418.6.623.6,1.11A1.8,1.8,0,0,1,44.452,265.105Z" transform="translate(0 -200.569)" fill="#fff"/>
    <path id="Path_204" data-name="Path 204" d="M328,171.917l1.978-2.925a2.51,2.51,0,1,0-4.159-2.813l-13.6,20.1a.836.836,0,0,0-.136.359l-.489,3.71a.837.837,0,0,0,1.24.839l3.262-1.835a.835.835,0,0,0,.282-.26l10.651-15.749,1.152,1.284-3.384,5,1.386.938,3.75-5.546a.837.837,0,0,0-.07-1.028Zm-.8-4.8a.837.837,0,0,1,1.386.938l-1.744,2.578-1.152-1.284Zm-12.1,20.877-1.631.917.244-1.855,2.233-3.3,1.386.938Zm3.171-4.689-1.386-.938,7.838-11.59,1.152,1.285Z" transform="translate(-264.67 -133.481)" fill="#fff"/>
    <path id="Path_205" data-name="Path 205" d="M136,144h1.674v1.674H136Z" transform="translate(-107.448 -114.611)" fill="#fff"/>
    <path id="Path_206" data-name="Path 206" d="M168,144h20.084v1.674H168Z" transform="translate(-136.1 -114.611)" fill="#fff"/>
    <path id="Path_207" data-name="Path 207" d="M120,176h25.1v1.674H120Z" transform="translate(-93.121 -143.263)" fill="#fff"/>
    <path id="Path_208" data-name="Path 208" d="M120,208h25.1v1.674H120Z" transform="translate(-93.121 -171.916)" fill="#fff"/>
    <path id="Path_209" data-name="Path 209" d="M240,240h12.553v1.674H240Z" transform="translate(-200.569 -200.569)" fill="#fff"/>
    <path id="Path_210" data-name="Path 210" d="M304,272h2.51v1.674H304Z" transform="translate(-257.874 -229.221)" fill="#fff"/>
  </g>
</svg>
