<svg xmlns="http://www.w3.org/2000/svg" width="43.423" height="45.745" viewBox="0 0 43.423 45.745">
  <g id="beskidzka_niskie_koszty" transform="translate(-13.002 0)">
    <path id="Path_150" data-name="Path 150" d="M64.675,200.783H63.138a.67.67,0,0,0,0,1.34h1.537a.614.614,0,0,1,.614.614v2.052a.614.614,0,0,1-.614.614H48.366a.614.614,0,0,1-.579-.413,1.961,1.961,0,0,0,.01-.2v-2.052a1.959,1.959,0,0,0-.01-.2.614.614,0,0,1,.579-.413H60.284a.67.67,0,1,0,0-1.34H48.366a1.941,1.941,0,0,0-.719.138,1.942,1.942,0,0,0,.151-.752v-2.052a1.945,1.945,0,0,0-.483-1.283,1.944,1.944,0,0,0,.483-1.283V193.5a1.944,1.944,0,0,0-.483-1.283,1.944,1.944,0,0,0,.483-1.283v-2.052a1.955,1.955,0,0,0-1.953-1.953H29.534a1.955,1.955,0,0,0-1.953,1.953v2.052a1.944,1.944,0,0,0,.483,1.283,1.944,1.944,0,0,0-.483,1.283v2.052a1.944,1.944,0,0,0,.483,1.283,1.945,1.945,0,0,0-.483,1.283v2.052a1.944,1.944,0,0,0,.483,1.283,1.944,1.944,0,0,0-.483,1.283v2.052a1.944,1.944,0,0,0,.483,1.283,1.945,1.945,0,0,0-.483,1.283v2.052a1.944,1.944,0,0,0,.483,1.283,1.944,1.944,0,0,0-.483,1.283v2.052a1.955,1.955,0,0,0,1.953,1.953h16.31a1.944,1.944,0,0,0,1.261-.463,1.944,1.944,0,0,0,1.261.463h16.31a1.955,1.955,0,0,0,1.953-1.953v-2.052a1.945,1.945,0,0,0-.483-1.283,1.944,1.944,0,0,0,.483-1.283v-2.052a1.945,1.945,0,0,0-.483-1.283,1.944,1.944,0,0,0,.483-1.283v-2.052A1.955,1.955,0,0,0,64.675,200.783Zm0,5.958a.614.614,0,0,1,.614.614v2.052a.614.614,0,0,1-.614.614H48.366a.614.614,0,0,1-.579-.413,1.961,1.961,0,0,0,.01-.2v-2.052a1.96,1.96,0,0,0-.01-.2.614.614,0,0,1,.579-.413H64.675Zm-35.755,2.666v-2.052a.614.614,0,0,1,.614-.614H45.844a.614.614,0,0,1,.579.413,1.962,1.962,0,0,0-.01.2v2.052a1.96,1.96,0,0,0,.01.2.614.614,0,0,1-.579.413H29.534a.614.614,0,0,1-.614-.613Zm0-4.619v-2.052a.614.614,0,0,1,.614-.614H45.844a.614.614,0,0,1,.579.413,1.962,1.962,0,0,0-.01.2v2.052a1.96,1.96,0,0,0,.01.2.614.614,0,0,1-.579.413H29.534a.614.614,0,0,1-.614-.614Zm0-4.619v-2.052a.614.614,0,0,1,.614-.614H45.844a.614.614,0,0,1,.614.614v2.052a.614.614,0,0,1-.614.614H29.534a.614.614,0,0,1-.614-.614Zm0-11.29a.614.614,0,0,1,.614-.614H45.844a.614.614,0,0,1,.614.614v2.052a.614.614,0,0,1-.614.614H34.9a.67.67,0,0,0,0,1.34H45.844a.614.614,0,0,1,.614.614v2.052a.614.614,0,0,1-.614.614H29.534a.614.614,0,0,1-.614-.614V193.5a.614.614,0,0,1,.614-.614h2.51a.67.67,0,1,0,0-1.34h-2.51a.614.614,0,0,1-.614-.614v-2.052Zm16.923,25.76H29.534a.614.614,0,0,1-.614-.614v-2.052a.614.614,0,0,1,.614-.614h16.31a.614.614,0,0,1,.579.413,1.962,1.962,0,0,0-.01.2v2.052a1.96,1.96,0,0,0,.01.2A.614.614,0,0,1,45.844,214.639Zm19.445-.614a.614.614,0,0,1-.614.614H48.366a.614.614,0,0,1-.579-.413,1.96,1.96,0,0,0,.01-.2v-2.052a1.959,1.959,0,0,0-.01-.2.614.614,0,0,1,.579-.413h16.31a.614.614,0,0,1,.614.614Z" transform="translate(-13.277 -170.234)" fill="#fff"/>
    <path id="Path_151" data-name="Path 151" d="M27.78,12.47,31.7,8.2l8.343,8.306a.67.67,0,0,0,.945-.949L32.464,7.065A1.088,1.088,0,0,0,30.9,7.1l-4.1,4.463a.079.079,0,0,1-.111.005L14.122.174a.67.67,0,1,0-.9.992L25.783,12.56A1.422,1.422,0,0,0,27.78,12.47Z" transform="translate(0 0)" fill="#fff"/>
    <path id="Path_152" data-name="Path 152" d="M135.171,27.941l-3.592-12.394a.67.67,0,0,0-1.279-.025l-1.312,3.934L110.583.776A1.419,1.419,0,0,0,108.5.84l-3.388,3.893L100.668.2a.67.67,0,0,0-.956.938l4.637,4.727a1.088,1.088,0,0,0,1.6-.048l3.567-4.1a.079.079,0,0,1,.116,0L128.8,21.175a.67.67,0,0,0,1.113-.258l.977-2.931,2.9,10-9.413-2.268,2.844-1.545a.67.67,0,0,0,.153-1.063l-5.567-5.542a.67.67,0,0,0-.945.949l4.93,4.908-3.585,1.948a.67.67,0,0,0,.163,1.24l11.436,2.755a1.161,1.161,0,0,0,.273.033,1.144,1.144,0,0,0,1.092-1.461Z" transform="translate(-78.792 0)" fill="#fff"/>
  </g>
</svg>
