<svg xmlns="http://www.w3.org/2000/svg" width="41.611" height="41.611" viewBox="0 0 41.611 41.611">
  <g id="beskidzka_ogrodki" transform="translate(-0.004)">
    <g id="Group_395" data-name="Group 395" transform="translate(0.086 7.675)">
      <path id="Path_157" data-name="Path 157" d="M12.092,94.6H8.659a.533.533,0,0,1,0-1.067h3.433a1.077,1.077,0,0,0,1.071-1.12,2.39,2.39,0,0,0-2.267-2.3.533.533,0,0,1-.51-.409,2.933,2.933,0,0,0-2.807-2.317,2.934,2.934,0,0,0-2.807,2.317.533.533,0,0,1-.51.409A2.388,2.388,0,0,0,1.995,92.4a1.077,1.077,0,0,0,1.07,1.129h2.56a.533.533,0,0,1,0,1.067H3.065A2.159,2.159,0,0,1,.93,92.333a3.485,3.485,0,0,1,2.913-3.251,3.974,3.974,0,0,1,3.736-2.757,3.974,3.974,0,0,1,3.736,2.757,3.486,3.486,0,0,1,2.913,3.254A2.155,2.155,0,0,1,12.092,94.6Z" transform="translate(-0.927 -86.325)" fill="#fff"/>
    </g>
    <g id="Group_396" data-name="Group 396" transform="translate(15.031 0)">
      <path id="Path_158" data-name="Path 158" d="M177.919,6.476h-7.164a1.769,1.769,0,0,1-1.738-1.835,2.79,2.79,0,0,1,2.315-2.562,3.21,3.21,0,0,1,6.009,0,2.788,2.788,0,0,1,2.314,2.554,1.762,1.762,0,0,1-1.737,1.843Zm-7.837-1.76a.672.672,0,0,0,.673.693h7.164a.686.686,0,0,0,.672-.71,1.706,1.706,0,0,0-1.659-1.587.534.534,0,0,1-.51-.4,2.145,2.145,0,0,0-4.171,0,.533.533,0,0,1-.51.4,1.707,1.707,0,0,0-1.659,1.593Z" transform="translate(-169.018 0)" fill="#fff"/>
    </g>
    <g id="Group_397" data-name="Group 397" transform="translate(20.139 40.188)">
      <ellipse id="Ellipse_28" data-name="Ellipse 28" cx="0.71" cy="0.711" rx="0.71" ry="0.711" fill="#fff"/>
    </g>
    <path id="Path_159" data-name="Path 159" d="M41.081,114.1h-.823a5.589,5.589,0,0,0-7.436-4.782,5.626,5.626,0,0,0-1.887-1.951V104.8a35.41,35.41,0,0,1,2.489-3.951,4.919,4.919,0,0,0,4.8-.63c2.032-1.5,2.447-4.555,3.351-6.739a.538.538,0,0,0-.334-.713c-2.577-.8-6.251-.762-8.124,2.007-.92,1.36-1.812,3.913-.533,5.418q-.873,1.2-1.648,2.469V92.82a4.761,4.761,0,0,0,3.907-4.862c0-2.544-3.632-6.6-4.046-7.05a.538.538,0,0,0-.788,0c-.414.454-4.046,4.506-4.046,7.05a4.761,4.761,0,0,0,3.907,4.862v9.839q-.774-1.27-1.648-2.47c1.278-1.5.387-4.058-.533-5.418C25.814,92,22.14,91.959,19.563,92.764a.539.539,0,0,0-.334.713c.9,2.184,1.319,5.234,3.351,6.739a4.92,4.92,0,0,0,4.8.629,35.413,35.413,0,0,1,2.488,3.951v2.057a5.424,5.424,0,0,0-4.043.174,5.523,5.523,0,0,0-9.952,0,5.469,5.469,0,0,0-5.9.935q-.306-.71-.643-1.405a32.742,32.742,0,0,1,1.916-3.711,4.631,4.631,0,0,0,4.4-.985c1.782-1.575,1.895-4.388,2.565-6.514a.539.539,0,0,0-.395-.682c-2.279-.5-5.577-.147-7.372,2.485-1.03,1.511-1.4,3.8-.093,5.115a33.866,33.866,0,0,0-1.64,3.076q-.4-.739-.827-1.457c1.281-1.287.965-3.6-.1-5.12a7.078,7.078,0,0,0-7.369-2.48.538.538,0,0,0-.395.682c.661,2.094.8,4.957,2.565,6.513a4.631,4.631,0,0,0,4.4.985,32.757,32.757,0,0,1,2.2,4.373,5.638,5.638,0,0,0-.313.481A5.589,5.589,0,0,0,1.44,114.1H.617a.533.533,0,0,0,0,1.067H17.463a.533.533,0,1,0,0-1.067H2.512a4.5,4.5,0,0,1,6.368-3.615.544.544,0,0,0,.723-.254,4.45,4.45,0,0,1,6.267-2,.538.538,0,0,0,.779-.283,4.453,4.453,0,0,1,8.4,0,.538.538,0,0,0,.779.283,4.453,4.453,0,0,1,6.267,2,.544.544,0,0,0,.723.254,4.5,4.5,0,0,1,6.368,3.615H24.06a.533.533,0,0,0,0,1.067h17.02a.533.533,0,0,0,0-1.067ZM34,95.368c1.387-2.051,4.152-2.278,6.367-1.74-.686,1.812-1.114,4.5-2.779,5.73a4.064,4.064,0,0,1-3.505.61q.949-1.225,2-2.363a.533.533,0,1,0-.783-.725q-1.077,1.162-2.049,2.416c-.61-1.042.035-2.876.747-3.928ZM27.55,99.3a36.076,36.076,0,0,0-2.51-2.9.533.533,0,1,0-.769.74,35.1,35.1,0,0,1,2.45,2.836,4.064,4.064,0,0,1-3.506-.61c-1.664-1.232-2.093-3.92-2.779-5.73,2.17-.527,4.947-.36,6.367,1.74.712,1.052,1.356,2.886.747,3.928ZM11.329,97.753a5.83,5.83,0,0,1,5.7-2.144c-.492,1.758-.625,4.166-2.082,5.453a3.766,3.766,0,0,1-3.112.853A32.449,32.449,0,0,1,13.874,99.1a.533.533,0,0,0-.829-.672,33.484,33.484,0,0,0-2.1,2.893c-.651-.914-.343-2.5.383-3.567ZM7.3,102.939a33.549,33.549,0,0,0-2.1-2.892.534.534,0,0,0-.829.672,32.467,32.467,0,0,1,2.042,2.814,3.766,3.766,0,0,1-3.112-.853c-1.421-1.255-1.606-3.753-2.082-5.453a5.869,5.869,0,0,1,5.7,2.149c.736,1.053,1.046,2.638.38,3.562Zm23.1-16.3a.533.533,0,0,0-.533.533v4.566a3.723,3.723,0,0,1-2.84-3.783c0-1.61,2.162-4.469,3.373-5.884,1.211,1.414,3.373,4.272,3.373,5.884a3.723,3.723,0,0,1-2.84,3.783V87.175A.534.534,0,0,0,30.4,86.642Z" transform="translate(0 -73.558)" fill="#fff"/>
  </g>
</svg>
