<svg xmlns="http://www.w3.org/2000/svg" width="53.813" height="52.055" viewBox="0 0 53.813 52.055">
  <g id="beskidzka_rozpoczecie_budowy" transform="translate(0.029 -0.9)">
    <g id="Group_460" data-name="Group 460" transform="translate(-0.029 0.9)">
      <g id="Group_448" data-name="Group 448" transform="translate(7.791 23.668)">
        <path id="Path_186" data-name="Path 186" d="M11.222,35.222a.881.881,0,0,1-.837-.67L9.3,30.2a.822.822,0,1,1,1.59-.418l1.088,4.352a.861.861,0,0,1-.586,1C11.389,35.222,11.305,35.222,11.222,35.222Z" transform="translate(-9.281 -29.181)" fill="#fff"/>
      </g>
      <g id="Group_449" data-name="Group 449" transform="translate(0 22.469)">
        <path id="Path_187" data-name="Path 187" d="M7.444,34.989H3.678a3.808,3.808,0,0,1-3.1-1.59,3.389,3.389,0,0,1-.418-3.1c.753-1.925,2.929-2.762,6.611-2.511a2.961,2.961,0,0,1,2.511,1.59,1.8,1.8,0,0,1,.084,1.841c-.5.921-1.757,1.339-4.017,1.423a.839.839,0,0,1-.837-.837.791.791,0,0,1,.837-.837c2.176-.084,2.511-.5,2.594-.586a.648.648,0,0,0-.084-.251,1.336,1.336,0,0,0-1.172-.67c-1.925-.167-4.352,0-4.854,1.423a1.453,1.453,0,0,0,.251,1.506,2.185,2.185,0,0,0,1.674.837H7.527a.839.839,0,0,1,.837.837.989.989,0,0,1-.921.921Z" transform="translate(0.029 -27.748)" fill="#fff"/>
      </g>
      <g id="Group_450" data-name="Group 450" transform="translate(42.996 23.724)">
        <path id="Path_188" data-name="Path 188" d="M52.228,35.233h-.251a.794.794,0,0,1-.586-1l1.088-4.352a.822.822,0,0,1,1.59.418l-1.088,4.352C52.982,34.982,52.563,35.233,52.228,35.233Z" transform="translate(-51.347 -29.247)" fill="#fff"/>
      </g>
      <g id="Group_451" data-name="Group 451" transform="translate(44.166 22.552)">
        <path id="Path_189" data-name="Path 189" d="M58.482,35.005H54.716a.839.839,0,0,1-.837-.837.9.9,0,0,1,.837-.837h3.766a2.06,2.06,0,0,0,1.674-.837,1.664,1.664,0,0,0,.251-1.506c-.5-1.423-2.929-1.59-4.854-1.423a1.409,1.409,0,0,0-1.172.67.648.648,0,0,0-.084.251s.335.5,2.678.586a.837.837,0,1,1,0,1.674c-2.26-.084-3.515-.5-4.017-1.423a1.8,1.8,0,0,1,.084-1.841,3.076,3.076,0,0,1,2.511-1.59c3.682-.251,5.858.586,6.611,2.511a3.191,3.191,0,0,1-.418,3.1A4.6,4.6,0,0,1,58.482,35.005Z" transform="translate(-52.746 -27.848)" fill="#fff"/>
      </g>
      <g id="Group_452" data-name="Group 452" transform="translate(0.462 26.743)">
        <path id="Path_190" data-name="Path 190" d="M4.27,42.182a.732.732,0,0,1-.753-.5L.587,34.064a.859.859,0,0,1,.418-1.088.887.887,0,0,1,1.088.251,1.929,1.929,0,0,0,1.674.921h46.2a1.929,1.929,0,0,0,1.674-.921.8.8,0,0,1,1.088-.251.83.83,0,0,1,.418,1.088L50.215,41.68a.847.847,0,0,1-1.59-.586l2.009-5.272a2.317,2.317,0,0,1-.753.084H3.768a2.317,2.317,0,0,1-.753-.084l2.009,5.272a.871.871,0,0,1-.5,1.088H4.27Z" transform="translate(-0.523 -32.856)" fill="#fff"/>
      </g>
      <g id="Group_453" data-name="Group 453" transform="translate(8.591 47.817)">
        <path id="Path_191" data-name="Path 191" d="M42.51,62.274H14.391a4.343,4.343,0,0,1-4.017-2.762l-.084-.335a.847.847,0,0,1,1.59-.586l.084.335A2.545,2.545,0,0,0,14.391,60.6H42.51a2.627,2.627,0,0,0,2.427-1.674l.084-.251a.847.847,0,0,1,1.59.586l-.084.335a4.307,4.307,0,0,1-4.017,2.678Z" transform="translate(-10.237 -58.037)" fill="#fff"/>
      </g>
      <g id="Group_454" data-name="Group 454" transform="translate(2.351 36.321)">
        <path id="Path_192" data-name="Path 192" d="M9.827,55.012c-3.933,0-6.528-2.762-7.03-7.448a2.45,2.45,0,0,1,.586-1.841A2.383,2.383,0,0,1,5.81,44.97a4.055,4.055,0,0,0,1.423,0,9.73,9.73,0,0,0,1.506-.335,12.92,12.92,0,0,1,2.511-.335,3.083,3.083,0,0,1,3.18,2.762c.586,2.678.251,5.021-.837,6.444a4.9,4.9,0,0,1-3.766,1.506ZM5.391,46.56a.761.761,0,0,0-.67.335c-.084,0-.251.251-.167.5.251,2.26,1.172,5.942,5.356,5.942v0a2.871,2.871,0,0,0,2.427-1c.837-1,1-2.929.586-5.021-.251-1.339-.837-1.423-1.506-1.423a10.756,10.756,0,0,0-2.092.335c-.5.084-1.088.251-1.59.335a8.741,8.741,0,0,1-2.092,0H5.391Z" transform="translate(-2.781 -44.3)" fill="#fff"/>
      </g>
      <g id="Group_455" data-name="Group 455" transform="translate(39.267 36.153)">
        <path id="Path_193" data-name="Path 193" d="M51.836,54.98a4.591,4.591,0,0,1-3.766-1.674c-1.172-1.423-1.506-3.766-.837-6.444.418-1.841,1.423-2.762,3.18-2.762a14.854,14.854,0,0,1,2.511.335c.5.084,1,.251,1.506.335a3.993,3.993,0,0,0,1.423,0,2.718,2.718,0,0,1,2.511.753,2.157,2.157,0,0,1,.586,1.841c-.586,4.854-3.18,7.616-7.114,7.616ZM50.33,45.857c-.67,0-1.255.084-1.506,1.423-.5,2.092-.251,4.017.586,5.021a2.871,2.871,0,0,0,2.427,1v0c4.184,0,5.105-3.766,5.356-5.942a.975.975,0,0,0-.167-.586.944.944,0,0,0-.921-.251,4.406,4.406,0,0,1-2.092,0,10.762,10.762,0,0,1-1.59-.335,11.825,11.825,0,0,0-2.092-.335Z" transform="translate(-46.892 -44.1)" fill="#fff"/>
      </g>
      <g id="Group_456" data-name="Group 456" transform="translate(18.101 14.98)">
        <path id="Path_194" data-name="Path 194" d="M30.3,29.931a8.751,8.751,0,0,1-8.7-8.7,12.485,12.485,0,0,1,.167-1.757.815.815,0,0,1,.837-.67H38a.815.815,0,0,1,.837.67,13.776,13.776,0,0,1,.167,1.757A8.7,8.7,0,0,1,30.3,29.931Zm-6.946-9.457c0,.251-.084.5-.084.753a7.03,7.03,0,0,0,14.06,0,2.317,2.317,0,0,0-.084-.753Z" transform="translate(-21.6 -18.8)" fill="#fff"/>
      </g>
      <g id="Group_457" data-name="Group 457" transform="translate(14.942 11.716)">
        <path id="Path_195" data-name="Path 195" d="M39.9,19.838H19.562a1.644,1.644,0,0,1-1.423-.753,1.405,1.405,0,0,1-.167-1.506,3.677,3.677,0,0,1,1-1.506A4.039,4.039,0,0,1,21.9,14.9H37.722a4.046,4.046,0,0,1,3.85,2.762,1.88,1.88,0,0,1-.167,1.506A2.427,2.427,0,0,1,39.9,19.838Zm-18.16-3.264a2.337,2.337,0,0,0-1.674.67,3.456,3.456,0,0,0-.586.921l20.336-.084a2.449,2.449,0,0,0-2.26-1.59H21.738Z" transform="translate(-17.826 -14.9)" fill="#fff"/>
      </g>
      <g id="Group_458" data-name="Group 458" transform="translate(17.18 4.432)">
        <path id="Path_196" data-name="Path 196" d="M38.911,15.154H21.337a.791.791,0,0,1-.837-.837V13.9a9.555,9.555,0,0,1,3.682-7.532.819.819,0,0,1,1.172.167.912.912,0,0,1-.167,1.172,7.663,7.663,0,0,0-3.013,5.858h15.9a7.5,7.5,0,0,0-2.343-5.189,4.784,4.784,0,0,0-.67-.586.9.9,0,0,1-.167-1.172.9.9,0,0,1,1.172-.167A7.545,7.545,0,0,1,36.9,7.2a9.573,9.573,0,0,1,2.845,6.779V14.4a.773.773,0,0,1-.837.753Z" transform="translate(-20.5 -6.195)" fill="#fff"/>
      </g>
      <g id="Group_459" data-name="Group 459" transform="translate(23.875)">
        <path id="Path_197" data-name="Path 197" d="M33.521,9.1a.791.791,0,0,1-.837-.837V3.829a1.255,1.255,0,0,0-2.511,0V8.265a.837.837,0,1,1-1.674,0V3.829a2.929,2.929,0,0,1,5.858,0V8.265A.839.839,0,0,1,33.521,9.1Z" transform="translate(-28.5 -0.9)" fill="#fff"/>
      </g>
    </g>
  </g>
</svg>
