<svg xmlns="http://www.w3.org/2000/svg" width="40.611" height="40.611" viewBox="0 0 40.611 40.611">
  <g id="beskidzka_lokalizacja" transform="translate(0)">
    <g id="Group_399" data-name="Group 399" transform="translate(14.84 7.4)">
      <g id="Group_398" data-name="Group 398">
        <path id="Path_160" data-name="Path 160" d="M192.55,93.3a5.408,5.408,0,0,0-3.1.968.6.6,0,0,0-.152.831.59.59,0,0,0,.825.154,4.233,4.233,0,0,1,2.423-.757,4.3,4.3,0,1,1-3.8,2.325.6.6,0,0,0-.252-.806.591.591,0,0,0-.8.254,5.556,5.556,0,0,0-.614,2.539A5.466,5.466,0,1,0,192.55,93.3Z" transform="translate(-187.084 -93.297)" fill="#fff"/>
      </g>
    </g>
    <g id="Group_401" data-name="Group 401" transform="translate(0.001)">
      <g id="Group_400" data-name="Group 400">
        <path id="Path_161" data-name="Path 161" d="M40.566,39.784,34.712,25.612a.593.593,0,0,0-.548-.368H28.331a30.248,30.248,0,0,0,2.817-4.6,17.732,17.732,0,0,0,1.97-7.737,12.812,12.812,0,1,0-25.623,0,17.732,17.732,0,0,0,1.97,7.737,30.232,30.232,0,0,0,2.817,4.6H6.448a.593.593,0,0,0-.548.368L1.911,35.269a.6.6,0,0,0,.32.781.59.59,0,0,0,.775-.322l.569-1.378H7.613L5.521,39.416H1.483l.607-1.468a.6.6,0,0,0-.32-.781.591.591,0,0,0-.775.322l-.948,2.3a.6.6,0,0,0,.054.561.592.592,0,0,0,.493.266H40.018a.592.592,0,0,0,.493-.266A.6.6,0,0,0,40.566,39.784ZM8.681,12.908a11.625,11.625,0,1,1,23.25,0c0,2.708-.934,7.036-5.254,12.551l-.012.016q-.331.422-.689.853a45.634,45.634,0,0,1-5.67,5.691,45.563,45.563,0,0,1-5.654-5.673q-.367-.442-.705-.873l-.011-.014C9.616,19.944,8.681,15.617,8.681,12.908ZM6.843,26.44h4.038L9.408,30H5.37Zm3.468,12.976,3.707-8.975,10.55,8.975Zm16.1,0h0L14.165,29a.591.591,0,0,0-.93.227L9.027,39.416H6.806L9.05,33.982A.6.6,0,0,0,9,33.421a.592.592,0,0,0-.493-.266H4.069L4.877,31.2H9.8a.593.593,0,0,0,.548-.368l1.814-4.392H13.2q.268.337.547.673a44.751,44.751,0,0,0,6.2,6.146.59.59,0,0,0,.726,0c.07-.054,1.012-.794,2.354-2.059h6.717a.6.6,0,0,0,0-1.2H24.245c.822-.833,1.721-1.8,2.625-2.892q.28-.337.547-.673h6.352L35.241,30h-3.13a.6.6,0,0,0,0,1.2h3.623l.808,1.955H24.322a.593.593,0,0,0-.556.389.6.6,0,0,0,.167.66l5.959,5.212Zm5.294,0L25.91,34.35H37.037l2.092,5.065Z" transform="translate(-0.001)" fill="#fff"/>
      </g>
    </g>
  </g>
</svg>
