<svg xmlns="http://www.w3.org/2000/svg" width="47.18" height="47.21" viewBox="0 0 47.18 47.21">
  <g id="beskidzka_etap_2" transform="translate(-0.764 -272.356)">
    <path id="polyline3877" d="M24.263,272.632,3.839,290.438h0a.742.742,0,0,0-.2.79.8.8,0,0,0,.668.533H9.316v17.118q-.21.234-.4.489l-1.563-3.785a.522.522,0,0,0,.181-.627l-.69-1.675.514-1.221A2.092,2.092,0,0,0,4.637,299.3L2.05,300.381a2.1,2.1,0,0,0,.028,3.876l1.221.494.693,1.675a.523.523,0,0,0,.568.318l2.4,5.8A29.334,29.334,0,0,1,3.729,316.5l-2.107,2.178a.523.523,0,0,0,.374.888H44.355a.523.523,0,0,0,.521-.525v-3.15h2.548a.523.523,0,0,0,.521-.521V311.7a.523.523,0,0,0-.521-.525H44.876v-3.15a.523.523,0,0,0-.521-.521H41.708l.413-5.775h.073a.523.523,0,1,0,0-1.046.523.523,0,0,0-.523-.525h-.979v-8.4H45.7a.8.8,0,0,0,.676-.533.739.739,0,0,0-.2-.79L25.737,272.632a1.123,1.123,0,0,0-1.474,0Zm.219,1.192v3.66l-14.84,13.23-4.471-.052Zm1.046.01,19.314,16.828q-2.237.03-4.475.051L25.528,277.484ZM25,278.421l1.046.933v4.541H23.957v-4.54Zm-2.089,1.862v3.611H20.842V282.13Zm4.18,0,2.092,1.865V283.9H27.1Zm-7.3,2.777v9.02a4.054,4.054,0,0,0,1.282,3c1.229.831,3.4,2.4,3.925,2.784v10.68a.523.523,0,0,0,.525.525h3.66v2.1c-2.3,0-4.579.016-6.879.016V299.823a1.653,1.653,0,0,0-1.656-1.633H13.585a1.65,1.65,0,0,0-1.653,1.633v7.311a6.874,6.874,0,0,0-1.571.809V291.473Zm10.438.021,2.092,1.865v8.913H30.235Zm-9.392,1.858h8.345v2.1H20.842Zm12.53.94,2.137,1.9-.022,3.455H33.372Zm-12.53,2.206h2.073v3.154H20.842Zm3.115,0H26.05v5.775h-.522a.523.523,0,0,0-.525.525v2.192c-.311-.226-.643-.464-1.046-.752Zm3.139,0h2.092v3.154H27.1Zm9.415.591,3.135,2.794v5.539H38.079v-2.625a.523.523,0,0,0-.522-.527H36.511Zm-13.6,3.608v2.8c-.438-.308-.859-.6-1.205-.836a3.338,3.338,0,0,1-.86-1.965Zm4.18,0h2.092v1.575H27.1Zm6.276,0h2.107l-.011,1.575h-2.1Zm-7.322,2.621h8.89v1.054H26.05Zm2.092,13.121V297.01h6.8v1.575a.523.523,0,0,0,1.046,0v-3.676h1.046v3.676a.523.523,0,0,0,1.047,0v-.525h1.567v2.1H34.875a.523.523,0,0,0-.521.525h0a.523.523,0,0,0,0,1.046h.075l.411,5.775H29.713a.527.527,0,0,0-.525.525ZM26.05,297.01H27.1v11.02H26.05Zm-5.4,2.227a.592.592,0,0,1,.61.587v11.369h-.85q-.328-.544-.633-1.1a6.462,6.462,0,0,0-5.658-3.358,6.219,6.219,0,0,0-1.143.113v-7.023a.589.589,0,0,1,.607-.587Zm-15.208.953a1.051,1.051,0,0,1,.952,1.462l-.517,1.23-2.182.907-1.237-.5a1.048,1.048,0,0,1-.01-1.938l2.587-1.078a1.044,1.044,0,0,1,.406-.082Zm-.328.819a.533.533,0,0,0-.172.039l-1.883.783a.522.522,0,1,0,.4.965l1.887-.779a.525.525,0,0,0-.23-1.008Zm30.317.2h1.007v1.05a.523.523,0,1,0,1.046,0v-1.05h1.047v3.675a.523.523,0,0,0,1.046,0v-3.675h1.532l-.451,6.3H35.882Zm-16.182,3.15v.552h-.031a.523.523,0,0,0,0,1.047h.031v.5a.523.523,0,0,0,1.046,0v-2.1a.523.523,0,0,0-1.046,0ZM6,303.969l.375.907-1.614.672-.375-.911Zm.4,2.03,1.847,4.478-.14.247q-.22.383-.451.759l-2.116-5.126Zm12.471,4.594a31.191,31.191,0,0,0,3.055,4.561.523.523,0,0,0-.05.218v3.15H3.231l1.251-1.289A30.084,30.084,0,0,0,9,311.253c.132-.219.258-.442.378-.664a5.417,5.417,0,0,1,1.989-2.054,5.823,5.823,0,0,1,2.757-.757,5.411,5.411,0,0,1,4.742,2.815Zm11.371-2.043h6.276v2.625H30.235Zm7.322,0H43.83v2.625H37.557Zm-22.03,1.05a.525.525,0,0,0-.371.9l.065.065a.524.524,0,0,0,.742-.74l-.065-.066a.523.523,0,0,0-.371-.154Zm-1.417,2.255a.523.523,0,0,0,0,.736l.065.066a.523.523,0,1,0,.742-.738l-.066-.065a.526.526,0,0,0-.371-.155.519.519,0,0,0-.37.155Zm12.465.367h6.272v2.629H26.575Zm7.319,0H40.17v2.629H33.894Zm7.322,0H46.9v2.629H41.216Zm-20.143.016h4.455v2.614H23.063A22.917,22.917,0,0,1,21.073,312.238ZM9.929,312.9a.523.523,0,0,0,0,.742l.065.065a.523.523,0,1,0,.74-.737l-.065-.065a.526.526,0,0,0-.367-.155.519.519,0,0,0-.371.151Zm7.319,0a.523.523,0,0,0,0,.742l.066.065a.523.523,0,0,0,.741-.737l-.065-.065a.526.526,0,0,0-.371-.155.519.519,0,0,0-.371.151Zm-8.3,2.1-.066.065a.524.524,0,0,0,.742.741l.065-.065A.524.524,0,0,0,8.945,315Zm10.4,0a.523.523,0,0,0,0,.742l.065.065a.524.524,0,0,0,.742-.741L20.082,315a.533.533,0,0,0-.742,0Zm3.571.892h6.276v2.629H22.911Zm7.323,0h6.276v2.629H30.235Zm7.322,0H43.83v2.629H37.557Zm-25.535.158a.523.523,0,0,0,0,.737l.065.065a.523.523,0,1,0,.742-.738l-.065-.065a.518.518,0,0,0-.737,0Zm4.18,0a.523.523,0,0,0,0,.737l.065.065a.523.523,0,1,0,.742-.738l-.065-.065a.523.523,0,0,0-.742,0Z" transform="translate(0 0)" fill="#fff"/>
  </g>
</svg>
