<svg id="beskidzka_etap_1" xmlns="http://www.w3.org/2000/svg" width="47.21" height="47.21" viewBox="0 0 47.21 47.21">
  <g id="Group_447" data-name="Group 447" transform="translate(0)">
    <g id="Group_446" data-name="Group 446">
      <path id="Path_183" data-name="Path 183" d="M45.687,38.157V31.219a2.281,2.281,0,0,0-1.523-2.144v-.9a2.287,2.287,0,0,0-2.284-2.284H33.364a2.281,2.281,0,0,0-2.144-1.523V14.838a5.339,5.339,0,0,0-2.692-4.631l-14.6-8.316A3.794,3.794,0,0,0,6.855,3.782h0L6.114,25.964a3.792,3.792,0,0,0-2.361,5.927L1.586,34.418a6.588,6.588,0,0,0,.343,8.946l2.285,2.285A5.3,5.3,0,0,0,7.984,47.21H15.99V45.687H14.468V41.514l-2.616-2.092a3.782,3.782,0,0,1-1.406-2.552L9.9,31.956a3.748,3.748,0,0,0-.637-5.182L12.8,6.951a3.936,3.936,0,0,0,.375-.31l7.812,7.812a3.006,3.006,0,0,0-.432,1.537,3.043,3.043,0,0,0,2.284,2.938v5.438h-.274a2.29,2.29,0,0,0-2.24,1.836L18.29,36.4l-.011,1.752a5.325,5.325,0,0,0,3.8,9.057h19.8a5.325,5.325,0,0,0,3.807-9.053ZM6.853,27.412A2.284,2.284,0,1,1,4.569,29.7,2.287,2.287,0,0,1,6.853,27.412Zm4.048,13.2,2.044,1.634v.4H11.422v1.523h1.523v1.523H7.984a3.784,3.784,0,0,1-2.692-1.116L3.006,42.286a5.065,5.065,0,0,1-.263-6.878L4.868,32.93a3.7,3.7,0,0,0,3.63.185l.436,3.922A5.294,5.294,0,0,0,10.9,40.611ZM7.848,26.038c-.072-.02-.138-.05-.21-.065l.64-19.22a3.766,3.766,0,0,0,2.382.862,3.67,3.67,0,0,0,.487-.049ZM10.66,6.092a2.284,2.284,0,1,1,2.284-2.284A2.287,2.287,0,0,1,10.66,6.092ZM33.5,30.458h1.523V28.935H33.5V27.412H41.88a.762.762,0,0,1,.761.761v.761H36.55v1.523H43.4a.762.762,0,0,1,.761.761v5.852a5.294,5.294,0,0,0-2.284-.522H33.5ZM14.1,5.41a3.779,3.779,0,0,0,.353-1.468l13.32,7.589A3.814,3.814,0,0,1,29.7,14.838v9.528h-5.33V18.928a3.039,3.039,0,0,0-.761-5.983,3.006,3.006,0,0,0-1.537.432Zm7.981,10.58A1.523,1.523,0,1,1,23.6,17.513,1.524,1.524,0,0,1,22.082,15.99ZM19.8,36.625,21.822,26.5a.764.764,0,0,1,.747-.612h8.65a.762.762,0,0,1,.761.761v9.9h-9.9a5.294,5.294,0,0,0-2.284.522ZM41.88,45.687h-19.8a3.807,3.807,0,0,1,0-7.615h19.8a3.807,3.807,0,0,1,0,7.615Z" transform="translate(0)" fill="#fff"/>
      <path id="Path_184" data-name="Path 184" d="M229.321,408a3.027,3.027,0,0,0-2.284,1.052,3.006,3.006,0,0,0-4.569,0,3.006,3.006,0,0,0-4.569,0,3.006,3.006,0,0,0-4.569,0,3.046,3.046,0,1,0,0,3.987,3.006,3.006,0,0,0,4.569,0,3.006,3.006,0,0,0,4.569,0,3.006,3.006,0,0,0,4.569,0A3.04,3.04,0,1,0,229.321,408Zm-18.275,4.569a1.523,1.523,0,1,1,1.523-1.523A1.524,1.524,0,0,1,211.046,412.569Zm4.569,0a1.523,1.523,0,1,1,1.523-1.523A1.524,1.524,0,0,1,215.615,412.569Zm4.569,0a1.523,1.523,0,1,1,1.523-1.523A1.524,1.524,0,0,1,220.183,412.569Zm4.569,0a1.523,1.523,0,1,1,1.523-1.523A1.524,1.524,0,0,1,224.752,412.569Zm4.569,0a1.523,1.523,0,1,1,1.523-1.523A1.524,1.524,0,0,1,229.321,412.569Z" transform="translate(-188.202 -369.166)" fill="#fff"/>
      <path id="Path_185" data-name="Path 185" d="M241.137,288H232.9l-.884,4.419L232,294.092h9.137Zm-1.523,4.569h-6.076l.609-3.046h5.467Z" transform="translate(-209.918 -260.588)" fill="#fff"/>
      <rect id="Rectangle_125" data-name="Rectangle 125" width="3.982" height="1.991" transform="translate(39.245 31.535)" fill="#fff"/>
      <rect id="Rectangle_126" data-name="Rectangle 126" width="2.987" height="1.991" transform="translate(35.263 31.535)" fill="#fff"/>
    </g>
  </g>
</svg>
