<svg xmlns="http://www.w3.org/2000/svg" width="16.646" height="16.646" viewBox="0 0 16.646 16.646"><g transform="translate(-2.35 -2.35)"><path d="M10.673,18.846a8.173,8.173,0,1,1,8.173-8.173A8.182,8.182,0,0,1,10.673,18.846Zm0-15.568a7.395,7.395,0,1,0,7.395,7.395,7.4,7.4,0,0,0-7.395-7.395Z" transform="translate(0 0)" fill="#fff" stroke="#fff" stroke-width="0.3"/><path d="M51.933,21.674H48.127a.389.389,0,0,1-.389-.389V15.707a.389.389,0,1,1,.778,0V20.9h3.416a.389.389,0,1,1,0,.778Z" transform="translate(-37.454 -10.612)" fill="#fff" stroke="#fff" stroke-width="0.3"/></g></svg>