<svg xmlns="http://www.w3.org/2000/svg" width="30.685" height="30.64" viewBox="0 0 30.685 30.64"><path d="M33.408,9.69c-.279-2.7-3.436-2.792-3.811-.422a5.923,5.923,0,0,0-1.377,1.824,29.983,29.983,0,0,0-.741,4.22,7.776,7.776,0,0,1-3.064,2.61c-5.534,2.744-5.182,6.331-5.05,7.681,0,0,.01,4.68-.007,7.468a.534.534,0,0,0,.531.534h4.79a.535.535,0,0,0,.53-.566l-.191-2.86a3.361,3.361,0,0,1,1.126-2.757c1.734-1.541,4.5-3.765,4.541-3.8a7.972,7.972,0,0,0,2.169-3.008c1.689-4.75.6-10.675.554-10.925Zm-4.2,1.789a3.016,3.016,0,0,1,.461-.731l-.19,3.055a3.433,3.433,0,0,0-.776.332A18.373,18.373,0,0,1,29.21,11.479Zm2.644,8.78a6.907,6.907,0,0,1-1.848,2.548c-.028.022-2.812,2.263-4.566,3.82a4.417,4.417,0,0,0-1.481,3.621l.153,2.294H20.425c.013-2.34,0-7.044,0-7.044-.123-1.259-.412-4.208,4.44-6.615A8.611,8.611,0,0,0,27.794,16.7c.609-1.467,3.733-3.3,2.251-.3a35.123,35.123,0,0,1-4.384,5.532.531.531,0,0,0,.763.739,35.491,35.491,0,0,0,4.55-5.757c.677-1.226.7-2.3.048-2.867a1.309,1.309,0,0,0-.474-.267l.3-4.8c.6-.955,1.412-.053,1.519.9.045.238,1.083,5.89-.511,10.372Zm-19.36-2.337a7.781,7.781,0,0,1-3.064-2.61,30.061,30.061,0,0,0-.741-4.22A5.923,5.923,0,0,0,7.311,9.268C6.936,6.9,3.779,6.991,3.5,9.69c-.047.25-1.135,6.175.554,10.925a7.972,7.972,0,0,0,2.169,3.008c.042.033,2.806,2.258,4.541,3.8a3.361,3.361,0,0,1,1.126,2.757l-.191,2.86a.535.535,0,0,0,.53.566h4.79a.534.534,0,0,0,.531-.534c-.016-2.787-.007-7.468-.007-7.468.132-1.35.484-4.937-5.05-7.681ZM7.7,11.479a18.358,18.358,0,0,1,.5,2.657,3.443,3.443,0,0,0-.776-.332l-.19-3.055a3.016,3.016,0,0,1,.461.731ZM16.486,25.5s-.015,4.7,0,7.044H12.8l.153-2.294a4.417,4.417,0,0,0-1.481-3.621c-1.754-1.558-4.538-3.8-4.566-3.82A6.9,6.9,0,0,1,5.056,20.26C3.461,15.777,4.5,10.126,4.544,9.888c.108-.957.924-1.859,1.519-.9l.3,4.8a1.313,1.313,0,0,0-.474.267c-.647.569-.63,1.642.048,2.867a35.491,35.491,0,0,0,4.55,5.757.531.531,0,0,0,.763-.739A35.155,35.155,0,0,1,6.864,16.4c-1.482-3.008,1.642-1.17,2.251.3a8.6,8.6,0,0,0,2.931,2.187c4.853,2.407,4.564,5.356,4.44,6.615ZM26.925,3.028a1.032,1.032,0,0,0-1.179.346c-1.066,1.384-3.244,2.2-6.3,2.346A8.529,8.529,0,0,0,10.989,14.4a.532.532,0,0,0,.407.517,25.013,25.013,0,0,0,5.779.764,10.67,10.67,0,0,0,6.666-1.942c3.252-2.5,3.726-6.716,3.8-9.671a1.07,1.07,0,0,0-.715-1.037Zm-3.732,9.865C20.97,14.6,17.6,15.04,13.164,14.2c2.337-1.864,5.7-3.176,9.488-4.88a18.921,18.921,0,0,0-10.5,4A7.3,7.3,0,0,1,19.5,6.783c3.425-.169,5.81-1.1,7.081-2.743-.068,2.737-.493,6.632-3.385,8.855Z" transform="translate(-3.112 -2.966)" fill="#fff"/></svg>