<svg xmlns="http://www.w3.org/2000/svg" width="15.248" height="15.245" viewBox="0 0 15.248 15.245">
  <path id="instagram" d="M7.621,5.952A3.909,3.909,0,1,0,11.529,9.86,3.9,3.9,0,0,0,7.621,5.952Zm0,6.45A2.541,2.541,0,1,1,10.162,9.86,2.546,2.546,0,0,1,7.621,12.4Zm4.98-6.61a.912.912,0,1,1-.912-.912A.91.91,0,0,1,12.6,5.792Zm2.589.925a4.512,4.512,0,0,0-1.231-3.194,4.541,4.541,0,0,0-3.194-1.231c-1.259-.071-5.031-.071-6.29,0A4.535,4.535,0,0,0,1.28,3.519,4.526,4.526,0,0,0,.048,6.714c-.071,1.259-.071,5.031,0,6.29A4.512,4.512,0,0,0,1.28,16.2a4.547,4.547,0,0,0,3.194,1.231c1.259.071,5.031.071,6.29,0A4.512,4.512,0,0,0,13.958,16.2,4.541,4.541,0,0,0,15.189,13c.071-1.259.071-5.028,0-6.286Zm-1.626,7.637A2.573,2.573,0,0,1,12.114,15.8a16.8,16.8,0,0,1-4.494.306A16.932,16.932,0,0,1,3.127,15.8a2.573,2.573,0,0,1-1.449-1.449A16.8,16.8,0,0,1,1.372,9.86a16.932,16.932,0,0,1,.306-4.494A2.573,2.573,0,0,1,3.127,3.917a16.8,16.8,0,0,1,4.494-.306,16.932,16.932,0,0,1,4.494.306,2.573,2.573,0,0,1,1.449,1.449A16.8,16.8,0,0,1,13.87,9.86,16.791,16.791,0,0,1,13.563,14.354Z" transform="translate(0.005 -2.238)" fill="#fff"/>
</svg>
