<svg xmlns="http://www.w3.org/2000/svg" width="30.424" height="30.43" viewBox="0 0 30.424 30.43"><g transform="translate(0 0)"><path d="M0,16.229a4.57,4.57,0,0,0,4.564,4.564H9.636v5.072A4.57,4.57,0,0,0,14.2,30.43h2.029a4.57,4.57,0,0,0,4.564-4.564V22.879a2.113,2.113,0,0,1,.507-.056,1.963,1.963,0,0,1,1.255.421,2.992,2.992,0,0,0,1.834.593,2.333,2.333,0,0,0,2.262-1.475,3.785,3.785,0,0,0-.9-3.956,7.455,7.455,0,0,1-1.08-1.471C24,15.84,23.307,14.708,21.3,14.708s-2.7,1.132-3.369,2.226a7.455,7.455,0,0,1-1.08,1.471,3.785,3.785,0,0,0-.9,3.956,2.333,2.333,0,0,0,2.262,1.476,2.854,2.854,0,0,0,1.568-.424v2.453a3.554,3.554,0,0,1-3.55,3.55H14.2a3.554,3.554,0,0,1-3.55-3.55V20.794a1.014,1.014,0,0,0-1.014-1.014H4.564a3.554,3.554,0,0,1-3.55-3.55V14.2a3.554,3.554,0,0,1,3.55-3.55H9.636A1.014,1.014,0,0,0,10.65,9.636V4.564a3.554,3.554,0,0,1,3.55-3.55h2.029a3.554,3.554,0,0,1,3.55,3.55V8.447a2.322,2.322,0,0,0-2.009-.806,2.282,2.282,0,0,0-1.68,1.278,3.875,3.875,0,0,0-.361,2.346,3.876,3.876,0,0,0,1.007,2.149,2.35,2.35,0,0,0,1.682.774,2.072,2.072,0,0,0,.29-.021,2.282,2.282,0,0,0,1.68-1.278,3.71,3.71,0,0,0,.405-1.731V4.564A4.57,4.57,0,0,0,16.229,0H14.2A4.57,4.57,0,0,0,9.636,4.564V9.636H4.564A4.57,4.57,0,0,0,0,14.2Zm18.212,6.593a1.323,1.323,0,0,1-1.323-.847,2.814,2.814,0,0,1,.678-2.85A8.362,8.362,0,0,0,18.8,17.464c.641-1.049,1.066-1.742,2.5-1.742s1.862.693,2.5,1.742a8.362,8.362,0,0,0,1.231,1.661,2.814,2.814,0,0,1,.677,2.85,1.323,1.323,0,0,1-1.323.847,1.992,1.992,0,0,1-1.278-.427,3.086,3.086,0,0,0-3.623,0A1.992,1.992,0,0,1,18.212,22.822Zm1.28-10.407a1.166,1.166,0,0,1-2.029.292,2.858,2.858,0,0,1-.73-1.586,2.852,2.852,0,0,1,.254-1.728,1.3,1.3,0,0,1,.927-.748c.819-.116,1.655.818,1.831,2.042a3.326,3.326,0,0,1,.034.462v.009a2.682,2.682,0,0,1-.287,1.258Z" transform="translate(0 0)" fill="#fff"/><path d="M25.035,25.509a2.328,2.328,0,0,0-.72,3.167,2.592,2.592,0,0,0,2.2,1.562,1.666,1.666,0,0,0,.732-.166,2.328,2.328,0,0,0,.719-3.167,2.328,2.328,0,0,0-2.931-1.4Zm1.77,3.652c-.5.24-1.217-.185-1.577-.927s-.245-1.572.249-1.812a.685.685,0,0,1,.3-.067,1.608,1.608,0,0,1,1.274.994c.358.741.244,1.573-.251,1.811Z" transform="translate(-11.832 -12.49)" fill="#fff"/><path d="M45.081,21.573a2.072,2.072,0,0,0,.29.021,2.352,2.352,0,0,0,1.682-.774,4.075,4.075,0,0,0,.646-4.495,2.282,2.282,0,0,0-1.68-1.278c-1.382-.2-2.72,1.1-2.979,2.9a3.883,3.883,0,0,0,.361,2.346A2.282,2.282,0,0,0,45.081,21.573Zm-1.037-3.48c.166-1.155.921-2.052,1.691-2.052a.992.992,0,0,1,.139.01,1.3,1.3,0,0,1,.927.748,3.068,3.068,0,0,1-.477,3.314,1.166,1.166,0,0,1-2.029-.292,2.856,2.856,0,0,1-.253-1.728Z" transform="translate(-21.188 -7.406)" fill="#fff"/><path d="M52.6,30.072a1.666,1.666,0,0,0,.732.166,2.592,2.592,0,0,0,2.2-1.563,2.079,2.079,0,1,0-3.651-1.77A2.329,2.329,0,0,0,52.6,30.072Zm1.471-3.718a.685.685,0,0,1,.3.067c.494.239.609,1.07.249,1.812s-1.082,1.166-1.576.927-.609-1.07-.249-1.812a1.608,1.608,0,0,1,1.272-.994Z" transform="translate(-25.418 -12.49)" fill="#fff"/><path d="M5.014,25.536a1.521,1.521,0,0,1,1.521-1.521.507.507,0,1,0,0-1.014A2.539,2.539,0,0,0,4,25.536a.507.507,0,1,0,1.014,0Z" transform="translate(-1.971 -11.335)" fill="#fff"/><path d="M13.014,24.014a.507.507,0,1,0,0-1.014h-.507a.507.507,0,1,0,0,1.014Z" transform="translate(-5.914 -11.335)" fill="#fff"/></g></svg>