<svg xmlns="http://www.w3.org/2000/svg" width="27.781" height="27.781" viewBox="0 0 27.781 27.781"><path d="M31.285,28.8h-.5v-.992a.5.5,0,0,0-.992,0V28.8H25.332V14.954L29.8,16.74v9.088a.5.5,0,0,0,.992,0V16.4a.5.5,0,0,0-.313-.461l-5.144-2.059V4.5a.5.5,0,0,0-.5-.5H13.922a.5.5,0,0,0,0,.992H24.34V6.977h-12.9V4.992h.5a.5.5,0,0,0,0-.992h-.992a.5.5,0,0,0-.5.5V7.929L5.672,6.019a.5.5,0,0,0-.68.461V28.8H4.5a.5.5,0,0,0-.5.5v1.984a.5.5,0,0,0,.5.5H31.285a.5.5,0,0,0,.5-.5V29.3A.5.5,0,0,0,31.285,28.8ZM24.34,7.969V28.8h-.992V18.387a.5.5,0,0,0-.5-.5H12.93a.5.5,0,0,0-.5.5v.992a.5.5,0,1,0,.992,0v-.5h8.93V28.8h-.992V21.363a.5.5,0,0,0-.5-.5H14.914a.5.5,0,0,0-.5.5V28.8h-.992V21.363a.5.5,0,0,0-.992,0V28.8h-.992V7.969ZM20.371,22.852H15.41v-.992h4.961Zm-4.961.992h1.984V28.8H15.41Zm2.977,0h1.984V28.8H18.387ZM5.984,7.215,10.449,9V28.8H5.984Zm24.8,23.574H4.992V29.8h25.8Z" transform="translate(-4 -4)" fill="#fff"/><path d="M21.5,17.473H23.48a.5.5,0,0,0,.5-.5V14.5a.5.5,0,0,0-.5-.5H21.5a.5.5,0,0,0-.5.5v2.48A.5.5,0,0,0,21.5,17.473Zm.5-2.48h.992V16.48h-.992Z" transform="translate(-12.566 -9.039)" fill="#fff"/><path d="M21.5,26.473H23.48a.5.5,0,0,0,.5-.5V23.5a.5.5,0,0,0-.5-.5H21.5a.5.5,0,0,0-.5.5v2.48A.5.5,0,0,0,21.5,26.473Zm.5-2.48h.992V25.48h-.992Z" transform="translate(-12.566 -13.574)" fill="#fff"/><path d="M29.5,17.473H31.48a.5.5,0,0,0,.5-.5V14.5a.5.5,0,0,0-.5-.5H29.5a.5.5,0,0,0-.5.5v2.48A.5.5,0,0,0,29.5,17.473Zm.5-2.48h.992V16.48h-.992Z" transform="translate(-16.598 -9.039)" fill="#fff"/><path d="M29.5,26.473H31.48a.5.5,0,0,0,.5-.5V23.5a.5.5,0,0,0-.5-.5H29.5a.5.5,0,0,0-.5.5v2.48A.5.5,0,0,0,29.5,26.473Zm.5-2.48h.992V25.48h-.992Z" transform="translate(-16.598 -13.574)" fill="#fff"/><path d="M37.5,17.473H39.48a.5.5,0,0,0,.5-.5V14.5a.5.5,0,0,0-.5-.5H37.5a.5.5,0,0,0-.5.5v2.48A.5.5,0,0,0,37.5,17.473Zm.5-2.48h.992V16.48h-.992Z" transform="translate(-20.629 -9.039)" fill="#fff"/><path d="M37.5,26.473H39.48a.5.5,0,0,0,.5-.5V23.5a.5.5,0,0,0-.5-.5H37.5a.5.5,0,0,0-.5.5v2.48A.5.5,0,0,0,37.5,26.473Zm.5-2.48h.992V25.48h-.992Z" transform="translate(-20.629 -13.574)" fill="#fff"/></svg>