<svg xmlns="http://www.w3.org/2000/svg" width="29" height="29" viewBox="0 0 29 29"><g transform="translate(0 9.396)"><path d="M23.83,173.336a1.04,1.04,0,0,0-.638-.906c-.385-.157-1.1-.232-2.893.826a3.074,3.074,0,0,0-.215-2.055,4.348,4.348,0,0,0,1.224-2.618,1.048,1.048,0,0,0-.644-.916c-1.451-.59-4.748,2.058-5.974,3.039a2.775,2.775,0,0,0-.176-1.27,4.307,4.307,0,0,0,1.239-2.586,1.023,1.023,0,0,0-.622-.883c-.821-.334-2.151.4-3.08.982-1.4.876-1.364.913-11.025,8.665A2.727,2.727,0,0,0,0,177.75V183.8a1.686,1.686,0,0,0,1.684,1.684h.91a.425.425,0,1,0,0-.85h-.91A.835.835,0,0,1,.85,183.8v-.9L12.7,173.39c.364,2.048,2.655,2.144,3.966,1.183a22.5,22.5,0,0,0,2.786-2.637,2.234,2.234,0,0,1-.752,2.336L5.782,184.638H4.577a.425.425,0,0,0,0,.85h9a3.478,3.478,0,0,0,2.169-.763l2.981-2.392a.425.425,0,0,0-.532-.663l-2.98,2.392a2.625,2.625,0,0,1-1.637.576H7.143l8.158-6.547a2.343,2.343,0,0,0,.365.929,2.569,2.569,0,0,0,3.213.447,15.193,15.193,0,0,0,2.389-2.054,2.318,2.318,0,0,1-.776,2.415l-.749.6a.425.425,0,0,0,.532.663l.749-.6a3.172,3.172,0,0,0,.9-3.765C22.434,176.161,23.972,174.466,23.83,173.336Zm-11.323-5.671c1.705-1.065,2.219-.946,2.3-.911.023.009.078.032.1.2.136,1.085-3.221,4.342-4.138,4.949a1.714,1.714,0,0,1-2.126-.07,2.028,2.028,0,0,1-.264-1.035A43.705,43.705,0,0,1,12.507,167.665Zm.306,4.548L.85,181.795V177.75a1.881,1.881,0,0,1,.707-1.474l6.036-4.843a1.8,1.8,0,0,0,1.168,1.492,2.694,2.694,0,0,0,1.917-.021,12.977,12.977,0,0,0,3.162-2.694A2.132,2.132,0,0,1,12.813,172.213Zm3.362,1.67a1.8,1.8,0,0,1-2.444-.085,2.236,2.236,0,0,1-.233-1.045,46.035,46.035,0,0,1,4.382-3.331c1.818-1.136,2.372-1.005,2.465-.967.031.013.1.039.12.234C20.611,169.862,17.149,173.167,16.174,173.883Zm2.455,4.745c-.7.453-1.9.5-2.3-.147a2.217,2.217,0,0,1-.235-1.026,42.845,42.845,0,0,1,4.339-3.287c1.8-1.118,2.347-.989,2.439-.952.03.012.092.038.116.225C23.134,174.612,19.525,178.048,18.629,178.628Z" transform="translate(0 -165.883)" fill="#fff"/></g><g transform="translate(22.628)"><path d="M405.443,2.291a.425.425,0,0,0,.425-.425V1.142A1.143,1.143,0,0,0,404.726,0h-3.943a1.143,1.143,0,0,0-1.142,1.142v2.7a1.287,1.287,0,0,0,.93,1.232l.892.254V8.843a1.224,1.224,0,0,0,.216.7,6.254,6.254,0,0,1-1.878,4.367.861.861,0,0,0,.009,1.324c.731.538.964.972,1.571.972a1.091,1.091,0,0,0,.979-.6,14.013,14.013,0,0,0,1.28-5.97,1.226,1.226,0,0,0,.285-.786V6.029a1.537,1.537,0,0,0,1.475-.065,1.164,1.164,0,0,0,.467-.937V3.849a.425.425,0,0,0-.85,0V5.027a.321.321,0,0,1-.129.259c-.216.163-.368-.008-1.271-.229l-2.813-.8a.434.434,0,0,1-.313-.415v-2.7a.3.3,0,0,1,.292-.292h3.943a.3.3,0,0,1,.292.292v.725A.425.425,0,0,0,405.443,2.291ZM401.6,15.218a.245.245,0,0,1-.375.077l-.876-.722a.014.014,0,0,1,0-.016,6.71,6.71,0,0,0,2.143-4.5,1.268,1.268,0,0,0,.289.014A12.8,12.8,0,0,1,401.6,15.218Zm.711-9.649.763.218V8.843a.382.382,0,0,1-.763,0Z" transform="translate(-399.495)" fill="#fff"/></g></svg>