<svg xmlns="http://www.w3.org/2000/svg" width="33.799" height="22.757" viewBox="0 0 33.799 22.757"><g transform="translate(0.001 0)"><path d="M210.117,24.984l.8-2.123a.744.744,0,0,0-.7-1.006h-2.968a.5.5,0,0,0,0,.99h2.611l-.676,1.79a.13.13,0,0,1-.121.084H206.64a.13.13,0,0,1-.127-.1L206,22.147a.9.9,0,0,0-.873-.709h-.511a.5.5,0,1,0,0,.99h.431l.5,2.39a1.125,1.125,0,0,0,1.1.891h2.429a1.126,1.126,0,0,0,1.048-.724Zm0,0" transform="translate(-190.643 -20.023)" fill="#fff"/><path d="M234.745,94.07a.5.5,0,1,0,0,.99h.109a.5.5,0,1,0,0-.99Zm0,0" transform="translate(-218.787 -87.861)" fill="#fff"/><path d="M266.94,94.07a.5.5,0,1,0,0,.99h.109a.5.5,0,1,0,0-.99Zm0,0" transform="translate(-248.856 -87.861)" fill="#fff"/><path d="M32.53,7.365H31.8a.5.5,0,1,0,0,.99h.731a.279.279,0,0,1,.278.279v1.849H27.863V8.355h1.956a.5.5,0,1,0,0-.99H27.863V6.128a.971.971,0,0,0-.97-.97H25.661a.971.971,0,0,0-.86.522,18.185,18.185,0,0,0-2.256-1.262V2.076A2.079,2.079,0,0,0,20.468,0H17.889a.5.5,0,1,0,0,.99h2.579a1.087,1.087,0,0,1,1.086,1.086V6.539a1.087,1.087,0,0,1-1.086,1.086H13.33a1.088,1.088,0,0,1-1.086-1.086V2.076A1.088,1.088,0,0,1,13.33.99h2.579a.5.5,0,0,0,0-.99H13.33a2.079,2.079,0,0,0-2.076,2.076V4.418A18.187,18.187,0,0,0,9,5.68a.971.971,0,0,0-.86-.522H6.906a.971.971,0,0,0-.97.97V7.365H3.979a.5.5,0,1,0,0,.99H5.935v2.128H.99V8.634a.279.279,0,0,1,.278-.279H2a.5.5,0,1,0,0-.99H1.268A1.27,1.27,0,0,0,0,8.634V21.459a1.3,1.3,0,0,0,1.3,1.3H32.5a1.3,1.3,0,0,0,1.3-1.3V8.634A1.27,1.27,0,0,0,32.53,7.365ZM27.863,17.852V16.4H29.84v1.449Zm1.978-2.439H27.863v-1.5H29.84Zm.99-1.5h1.978v1.5H30.831Zm0,2.489h1.978v1.449H30.831Zm1.978-3.48H30.831V11.474h1.978ZM29.84,11.474v1.449H27.863V11.474Zm-9.834,4.785H13.791a.923.923,0,0,0-.922.922v4.586H9.107V14.79H24.691v6.977H20.929V17.181a.923.923,0,0,0-.922-.922Zm-5.9-7.643h5.58V9.957h-5.58Zm5.58,2.332V13.8h-5.58V10.947ZM13.119,13.8H9.107V10.947h4.012Zm9.425-7.261V5.518A18.074,18.074,0,0,1,24.691,6.8V9.957H23.64a.5.5,0,1,0,0,.99h1.051V13.8H20.679V10.947h.981a.5.5,0,1,0,0-.99h-.981V8.6a2.079,2.079,0,0,0,1.865-2.066ZM13.119,8.6V9.957H9.107V6.8a18.106,18.106,0,0,1,2.146-1.281v1.02A2.079,2.079,0,0,0,13.119,8.6ZM.99,17.852V16.4H2.967v1.449Zm4.946-2.439H3.958v-1.5H5.935Zm-2.968,0H.99v-1.5H2.967Zm.99.99H5.935v1.449H3.958Zm1.978-3.48H3.958V11.474H5.935ZM2.967,11.474v1.449H.99V11.474ZM.99,21.459V18.842H5.935v2.924H1.3a.308.308,0,0,1-.308-.308ZM6.925,6.148H8.117V21.767H6.925Zm6.934,11.1H16.4v4.518H13.859Zm3.535,4.518V17.249h2.545v4.518ZM25.681,6.148h1.192V21.767H25.681ZM32.5,21.767H27.863V18.842h4.946v2.616a.308.308,0,0,1-.308.308Zm0,0" fill="#fff"/><path d="M229.87,285.516a.5.5,0,0,0-.5.5v.136a.5.5,0,0,0,.99,0v-.136A.5.5,0,0,0,229.87,285.516Zm0,0" transform="translate(-214.234 -266.668)" fill="#fff"/><path d="M268.12,285.516a.5.5,0,0,0-.5.5v.136a.5.5,0,0,0,.99,0v-.136A.5.5,0,0,0,268.12,285.516Zm0,0" transform="translate(-249.959 -266.668)" fill="#fff"/></g></svg>