<svg xmlns="http://www.w3.org/2000/svg" width="28.497" height="28.386" viewBox="0 0 28.497 28.386"><g transform="translate(0 -0.994)"><path d="M180.368,143.821a.415.415,0,0,0-.448.381l-.09,1.119a.416.416,0,0,0,.381.448h.034a.416.416,0,0,0,.414-.382l.09-1.119A.416.416,0,0,0,180.368,143.821Z" transform="translate(-169.82 -134.876)" fill="#fff"/><path d="M185.225,93.847a.43.43,0,0,0-.457.371l-.045.552a.433.433,0,0,0,.39.457h.034a.416.416,0,0,0,.414-.382l.045-.552A.416.416,0,0,0,185.225,93.847Z" transform="translate(-174.442 -87.684)" fill="#fff"/><path d="M316.442,144.2a.416.416,0,0,0-.828.067l.09,1.119a.416.416,0,0,0,.414.382h.034a.416.416,0,0,0,.381-.448Z" transform="translate(-298.046 -134.876)" fill="#fff"/><path d="M312.052,95.058a.416.416,0,0,0,.381-.448l-.045-.552a.416.416,0,0,0-.829.067l.045.552a.416.416,0,0,0,.414.382Z" transform="translate(-294.218 -87.524)" fill="#fff"/><path d="M156.486,446.047l-.045.552a.416.416,0,0,0,.381.448h.034a.416.416,0,0,0,.414-.382l.045-.552a.416.416,0,1,0-.828-.067Z" transform="translate(-147.733 -419.921)" fill="#fff"/><path d="M160.585,385.712l-.091,1.119a.416.416,0,0,0,.381.448h.034a.416.416,0,0,0,.414-.382l.091-1.119a.416.416,0,0,0-.828-.067Z" transform="translate(-151.561 -362.945)" fill="#fff"/><path d="M165.785,326.947a.416.416,0,0,0,.414-.382l.091-1.119a.416.416,0,0,0-.828-.067l-.091,1.119a.416.416,0,0,0,.381.448Z" transform="translate(-156.165 -305.97)" fill="#fff"/><path d="M341,446.047a.416.416,0,1,0-.828.067l.045.552a.416.416,0,0,0,.414.382h.034a.416.416,0,0,0,.381-.448Z" transform="translate(-321.233 -419.922)" fill="#fff"/><path d="M330.782,326.774a.416.416,0,0,0,.381-.448l-.09-1.119a.416.416,0,1,0-.828.067l.09,1.119a.416.416,0,0,0,.414.382Z" transform="translate(-311.862 -305.807)" fill="#fff"/><path d="M335.827,387.278a.405.405,0,0,0,.371-.457l-.09-1.119a.4.4,0,0,0-.438-.371.416.416,0,0,0-.381.448l.091,1.119a.416.416,0,0,0,.414.382Z" transform="translate(-316.626 -362.944)" fill="#fff"/><path d="M27.79,11.813H21.847L20.84,4.721h3.29a.707.707,0,0,0,.707-.707V1.7a.707.707,0,0,0-.707-.707H4.367A.707.707,0,0,0,3.66,1.7V4.014a.707.707,0,0,0,.707.707h3.29L6.65,11.813H.707A.707.707,0,0,0,0,12.52v3.372a.708.708,0,0,0,.707.707h.748v3.722a.569.569,0,0,0,.568.568H3.877a.569.569,0,0,0,.568-.568V16.6H5.971L4.224,28.906a.416.416,0,0,0,.411.474H6.046a.416.416,0,1,0,0-.831H5.114L6.81,16.6h2.7l-.045.562a.416.416,0,0,0,.381.448h.034a.416.416,0,0,0,.414-.382l.051-.629h2.446v11.95H7.949a.416.416,0,0,0,0,.831h5.259a.416.416,0,0,0,.416-.416V16.6h1.248V28.964a.416.416,0,0,0,.416.416h8.574a.416.416,0,0,0,.411-.474L22.526,16.6h1.526v3.722a.569.569,0,0,0,.568.568h1.855a.569.569,0,0,0,.568-.568V16.6h.748a.708.708,0,0,0,.707-.707V12.52a.708.708,0,0,0-.707-.707Zm-6.783,0H15.7V9.14a.416.416,0,1,0-.831,0v2.673H13.624V4.721h1.248V7.194a.416.416,0,1,0,.831,0V4.721H20ZM4.491,3.89V1.825H24V3.89Zm4,.831h4.3v7.093H7.49ZM23.383,28.549H15.7V16.6H18.15l.051.629a.416.416,0,0,0,.414.382h.034a.416.416,0,0,0,.381-.448l-.045-.562h2.7Zm4.283-12.781H26.627a.416.416,0,0,0-.416.416v3.874H24.883V16.184a.416.416,0,0,0-.416-.416H4.029a.416.416,0,0,0-.416.416v3.874H2.286V16.184a.416.416,0,0,0-.416-.416H.831V12.644H27.665Z" transform="translate(0 0)" fill="#fff"/></g></svg>