<svg xmlns="http://www.w3.org/2000/svg" width="28.096" height="29.932" viewBox="0 0 28.096 29.932"><g transform="translate(-15.701)"><g transform="translate(21.547 7.366)"><path d="M116.281,125.994a.585.585,0,1,0,.585.585A.585.585,0,0,0,116.281,125.994Z" transform="translate(-115.696 -125.994)" fill="#fff"/></g><g transform="translate(22.131 15.959)"><g transform="translate(0)"><path d="M130.957,275.324H129.2v-1.754a.585.585,0,1,0-1.169,0v1.754h-1.754a.585.585,0,1,0,0,1.169h1.754v1.754a.585.585,0,1,0,1.169,0v-1.754h1.754a.585.585,0,1,0,0-1.169Z" transform="translate(-125.696 -272.986)" fill="#fff"/></g></g><g transform="translate(15.701)"><g transform="translate(0)"><path d="M43.171,18.824a4.674,4.674,0,0,0-6.388-1.712l-2.375,1.371V13.406a2.944,2.944,0,0,0-.585-1.754L30.9,7.755V6.1a1.757,1.757,0,0,0,1.169-1.653V1.754A1.756,1.756,0,0,0,30.316,0H19.793a1.756,1.756,0,0,0-1.754,1.754V4.443A1.757,1.757,0,0,0,19.208,6.1V7.756l-2.923,3.9a2.944,2.944,0,0,0-.584,1.753V24.728a2.926,2.926,0,0,0,2.923,2.923h9.395A4.672,4.672,0,0,0,34.371,29.3l7.088-4.092A4.68,4.68,0,0,0,43.171,18.824ZM19.208,1.754a.585.585,0,0,1,.585-.585H30.316a.585.585,0,0,1,.585.585V4.443a.585.585,0,0,1-.585.585H19.793a.585.585,0,0,1-.585-.585V1.754Zm-1.988,10.6L20.261,8.3a.585.585,0,0,0,.117-.351V6.2h9.353V7.366H24.47a.585.585,0,0,0,0,1.169h5.554l2.864,3.819a1.769,1.769,0,0,1,.339.858H16.883A1.768,1.768,0,0,1,17.221,12.354Zm1.4,14.128a1.756,1.756,0,0,1-1.754-1.754v-.59H27.491a4.684,4.684,0,0,0,.028,2.344h-8.9Zm9.326-3.508H16.87V14.381H33.239v4.777L29.695,21.2A4.642,4.642,0,0,0,27.95,22.974Zm5.837,5.317a3.507,3.507,0,1,1-3.508-6.075l3.173-1.832,3.508,6.075ZM40.874,24.2l-2.9,1.675L34.465,19.8l2.9-1.675A3.507,3.507,0,1,1,40.874,24.2Z" transform="translate(-15.701)" fill="#fff"/></g></g></g></svg>