<svg xmlns="http://www.w3.org/2000/svg" width="32.297" height="28" viewBox="0 0 32.297 28"><g transform="translate(0 -34.061)"><g transform="translate(0 34.061)"><g transform="translate(0 0)"><path d="M31.362,41.714l-14.033-6.4a2.846,2.846,0,0,0-2.361,0L.936,41.714a1.549,1.549,0,0,0,0,2.844l4.447,2.027V53.9a4.088,4.088,0,0,0,2.153,3.257v1.664a2.153,2.153,0,1,0,1.077,0V57.778a17.645,17.645,0,0,0,7.536,1.507c6.037,0,10.766-2.365,10.766-5.383V46.586l4.447-2.027a1.549,1.549,0,0,0,0-2.844ZM9.151,60.9a1.077,1.077,0,1,1-1.077-1.077A1.077,1.077,0,0,1,9.151,60.9Zm-2.691-7V47.076l1.077.491v8.265A2.627,2.627,0,0,1,6.459,53.9Zm19.378,0c0,2.335-4.437,4.306-9.689,4.306a16.227,16.227,0,0,1-7.536-1.639V48.058l6.356,2.9a2.842,2.842,0,0,0,2.361,0l8.509-3.879V53.9Zm5.078-10.324-14.033,6.4a1.793,1.793,0,0,1-1.468,0l-6.1-2.78,4.747-2.4a4.319,4.319,0,0,0,2.084.5c1.811,0,3.23-.946,3.23-2.153s-1.419-2.153-3.23-2.153-3.23.946-3.23,2.153a1.594,1.594,0,0,0,.28.888l-5.136,2.6L1.382,43.578a.473.473,0,0,1,0-.884l14.033-6.4a1.792,1.792,0,0,1,1.468,0l14.033,6.4a.473.473,0,0,1,0,.884ZM14,43.136c0-.508.92-1.077,2.153-1.077s2.153.568,2.153,1.077-.92,1.077-2.153,1.077S14,43.644,14,43.136Z" transform="translate(0 -35.061)" fill="#fff"/></g></g></g></svg>