<svg xmlns="http://www.w3.org/2000/svg" width="30.25" height="30.25" viewBox="0 0 30.25 30.25"><g transform="translate(-3 -3)"><path d="M30.643,17.6H25.414a2.582,2.582,0,0,0,.535-1.565V5.608A2.611,2.611,0,0,0,23.341,3H12.91A2.611,2.611,0,0,0,10.3,5.608V16.039a2.582,2.582,0,0,0,.535,1.565H5.608A2.611,2.611,0,0,0,3,20.211V30.643A2.611,2.611,0,0,0,5.608,33.25H16.039a2.6,2.6,0,0,0,2.086-1.059,2.6,2.6,0,0,0,2.086,1.059H30.643a2.611,2.611,0,0,0,2.608-2.608V20.211A2.611,2.611,0,0,0,30.643,17.6Zm-19.3-1.565V5.608A1.566,1.566,0,0,1,12.91,4.043H23.341a1.566,1.566,0,0,1,1.565,1.565V16.039A1.566,1.566,0,0,1,23.341,17.6H12.91A1.566,1.566,0,0,1,11.345,16.039Zm4.694,16.168H5.608a1.566,1.566,0,0,1-1.565-1.565V20.211a1.566,1.566,0,0,1,1.565-1.565H16.039A1.566,1.566,0,0,1,17.6,20.211V30.643A1.566,1.566,0,0,1,16.039,32.207Zm16.168-1.565a1.566,1.566,0,0,1-1.565,1.565H20.211a1.566,1.566,0,0,1-1.565-1.565V20.211a1.566,1.566,0,0,1,1.565-1.565H30.643a1.566,1.566,0,0,1,1.565,1.565Z" fill="#fff"/><path d="M45.953,35H35.522a.522.522,0,0,0-.522.522V45.953a.522.522,0,0,0,.522.522H45.953a.522.522,0,0,0,.522-.522V35.522A.522.522,0,0,0,45.953,35Zm-.522,10.431H36.043V36.043h9.388Z" transform="translate(-15.31 -15.31)" fill="#fff"/><path d="M17.953,35H7.522A.522.522,0,0,0,7,35.522V45.953a.522.522,0,0,0,.522.522H17.953a.522.522,0,0,0,.522-.522V35.522A.522.522,0,0,0,17.953,35Zm-.522,10.431H8.043V36.043h9.388Z" transform="translate(-1.914 -15.31)" fill="#fff"/><path d="M32.474,17.953V7.522A.522.522,0,0,0,31.953,7H21.522A.522.522,0,0,0,21,7.522V17.953a.522.522,0,0,0,.522.522H31.953A.522.522,0,0,0,32.474,17.953Zm-1.043-.522H22.043V8.043h9.388Z" transform="translate(-8.612 -1.914)" fill="#fff"/><path d="M27.356,18.275a.521.521,0,0,0,.66-.33l.577-1.73h2.03l.577,1.73a.522.522,0,0,0,.99-.33L30.1,11.356a.522.522,0,0,0-.99,0l-2.086,6.259a.521.521,0,0,0,.33.66Zm2.251-5.1.667,2H28.941Z" transform="translate(-11.482 -3.827)" fill="#fff"/><path d="M14.522,46.3h1.565a2.077,2.077,0,0,0,1.365-3.651A2.077,2.077,0,0,0,16.086,39H14.522a.522.522,0,0,0-.522.522V45.78A.522.522,0,0,0,14.522,46.3Zm2.608-2.086a1.044,1.044,0,0,1-1.043,1.043H15.043V43.172h1.043A1.044,1.044,0,0,1,17.129,44.216Zm-2.086-4.172h1.043a1.043,1.043,0,1,1,0,2.086H15.043Z" transform="translate(-5.263 -17.224)" fill="#fff"/><path d="M44.086,46.3a2.088,2.088,0,0,0,2.086-2.086.522.522,0,0,0-1.043,0,1.043,1.043,0,0,1-2.086,0V41.086a1.043,1.043,0,0,1,2.086,0,.522.522,0,1,0,1.043,0,2.086,2.086,0,0,0-4.172,0v3.129A2.088,2.088,0,0,0,44.086,46.3Z" transform="translate(-18.659 -17.224)" fill="#fff"/></g></svg>