<svg xmlns="http://www.w3.org/2000/svg" width="29.097" height="29.097" viewBox="0 0 29.097 29.097"><g transform="translate(0 0)"><path d="M143.377,10.835a5.538,5.538,0,0,0,6.513-7.893A5.538,5.538,0,0,0,142.4.649h0a5.538,5.538,0,0,0,.976,10.186ZM142.8,1.4h0a4.685,4.685,0,1,1,4.4,8.276A4.685,4.685,0,1,1,142.8,1.4Z" transform="translate(-131.536 0.001)" fill="#fff"/><path d="M181.008,45.246h.869v.867a.981.981,0,0,0,.979.98h.807a.981.981,0,0,0,.98-.98v-.867h.867a.981.981,0,0,0,.98-.98v-.807a.981.981,0,0,0-.98-.98h-.867v-.867a.981.981,0,0,0-.98-.98h-.807a.981.981,0,0,0-.979.98v.867h-.869a.981.981,0,0,0-.98.98v.807A.981.981,0,0,0,181.008,45.246Zm-.128-1.787a.13.13,0,0,1,.128-.128h1.3a.426.426,0,0,0,.426-.426V41.611a.129.129,0,0,1,.126-.128h.807a.13.13,0,0,1,.128.128V42.9a.426.426,0,0,0,.426.426h1.294a.13.13,0,0,1,.128.128v.807a.13.13,0,0,1-.128.128h-1.294a.426.426,0,0,0-.426.426v1.293a.13.13,0,0,1-.128.128h-.807a.129.129,0,0,1-.126-.128V44.82a.426.426,0,0,0-.426-.426h-1.3a.13.13,0,0,1-.128-.128Z" transform="translate(-169.797 -38.322)" fill="#fff"/><path d="M27.439,160.2v-3.51h1.143a.426.426,0,0,0,.426-.426v-8.54a1.637,1.637,0,0,0-3.217-.426H21.95a.426.426,0,0,0,0,.852h3.785v7.688H14.21v-5.956a1.734,1.734,0,0,1,1.732-1.732h4.039a.426.426,0,0,0,0-.852H15.943a2.588,2.588,0,0,0-2.585,2.585V150H8.265A1.741,1.741,0,0,0,7.2,148.439l-.036-.013-3.889-1.215v-2.195a1.637,1.637,0,1,0-3.274,0V149a.426.426,0,0,0,.852,0v-3.988a.784.784,0,1,1,1.569,0v8.83a.426.426,0,0,0,.426.426h10.51v1.569H.853v-4.868a.426.426,0,1,0-.852,0v5.295a.426.426,0,0,0,.426.426H2.006v3.51a2.084,2.084,0,1,0,.853,0v-1.352H26.587V160.2a2.084,2.084,0,1,0,.853,0Zm-.069-13.26a.785.785,0,0,1,.785.784v8.114H26.587v-8.114A.784.784,0,0,1,27.37,146.944ZM6.889,149.233a.883.883,0,0,1,.524.768H3.274v-1.9Zm-3.615,4.188v-2.567H13.358v2.567Zm.39,8.823a1.231,1.231,0,1,1-1.231-1.231A1.233,1.233,0,0,1,3.663,162.244ZM2.858,158v-1.306H26.587V158Zm24.155,5.475a1.231,1.231,0,1,1,1.231-1.231A1.233,1.233,0,0,1,27.013,163.475Z" transform="translate(0 -135.231)" fill="#fff"/></g></svg>