<svg xmlns="http://www.w3.org/2000/svg" width="28.402" height="30.433" viewBox="0 0 28.402 30.433"><g transform="translate(0 0.001)"><path d="M367.84,69.834l.965-.314.991,3.044-.965.314Zm0,0" transform="translate(-344.518 -65.113)" fill="#fff"/><path d="M344.391,125.841l.965-.314.991,3.043-.965.314Zm0,0" transform="translate(-322.556 -117.569)" fill="#fff"/><path d="M52.1,9.751a2.764,2.764,0,0,0,.623,2.158l.732.919V21.3h1.014V13.628l.733.488a.508.508,0,0,0,.563,0l1.24-.828,1.24.827a.508.508,0,0,0,.563,0l1.24-.827,1.24.827a.508.508,0,0,0,.563,0l1.24-.827,1.24.827a.508.508,0,0,0,.563,0l1.24-.827,1.014.676V29.418H55.994v1.014H70.2A2.539,2.539,0,0,0,72.732,27.9V12.679a.5.5,0,0,0-.109-.307l2.931-7.8a3.416,3.416,0,0,0-.386-3.145A3.241,3.241,0,0,0,72.474,0,3.321,3.321,0,0,0,69.393,2.16l-.8,2.117-.938-.938V1.521a.507.507,0,0,0-.507-.507H61.574a.507.507,0,0,0-.507.507v.87a1.584,1.584,0,0,0-2.046-.069v-.8a1.5,1.5,0,0,0-3.007,0v.8a1.552,1.552,0,0,0-2.1.113,1.607,1.607,0,0,0-.009,2.229l.472.487a1.553,1.553,0,0,0-.46.323l0,0,0,.005a1.562,1.562,0,0,0-.289.414l-.578-1.068-.892.483,1.312,2.421c-.059.033-.118.066-.173.1-.021.014-.039.03-.059.045L51.266,6.072l-.688.746,1.95,1.8A2.767,2.767,0,0,0,52.1,9.751Zm10.711,2.506-1.24.828-1.24-.827a.508.508,0,0,0-.563,0l-1.228.819c0-.051-.012-.095-.012-.144a2.276,2.276,0,0,1,4.431-.741.513.513,0,0,0-.148.064Zm1.3.489-.01-.006a3.292,3.292,0,0,0-4.555-2.85v-3.3H64.11ZM71.718,27.9A1.522,1.522,0,0,1,70.2,29.418H68.167V13.965l1.014-.677,1.24.827a.508.508,0,0,0,.563,0l.733-.487ZM70.343,2.517a2.3,2.3,0,0,1,2.131-1.5A2.239,2.239,0,0,1,74.334,2a2.4,2.4,0,0,1,.271,2.213l-3.141,8.365-.761.507-1.24-.827a.508.508,0,0,0-.563,0l-1.24.827L66.631,12.4Zm-2.136,2.8-2.692,7.166-.391.261V6.3l2.029-2.029ZM62.081,2.028h4.565V3.042H62.081Zm-.3,2.029h4.145L64.407,5.578H60.262Zm-7.145-.91a.54.54,0,0,1,.776,0l.745.761a.507.507,0,0,0,.869-.358V1.521a.489.489,0,1,1,.978,0V3.549a.507.507,0,0,0,.869.355l.747-.761a.549.549,0,0,1,.771,0,.58.58,0,0,1,0,.811L58.9,5.477l.015.015-.235.235a.5.5,0,0,0-.1.145c-.007.016-.011.031-.017.048a.507.507,0,0,0-.027.134c0,.011-.006.02-.006.031v4.474a3.249,3.249,0,0,0-.32.355l-.958-2.039A2.738,2.738,0,0,0,55.5,7.455a2.674,2.674,0,0,0-.542-.082l-.13-.152c-.1-.116-.178-.207-.19-.219a.587.587,0,0,1-.152-.516.563.563,0,0,1,.14-.283l.009-.009.013-.014a.544.544,0,0,1,.682-.064.507.507,0,0,0,.648-.772L54.635,3.96a.586.586,0,0,1,0-.813ZM53.108,9.89a1.745,1.745,0,0,1,.749-1.211,1.711,1.711,0,0,1,2.485.644l1.293,2.754a3.247,3.247,0,0,0-.076.361l-.267-.179a.507.507,0,0,0-.563,0l-1.242.826-1.125-.751-.109-.136,1.308-1.011-.621-.8L53.621,11.4l-.113-.14a1.757,1.757,0,0,1-.4-1.375Zm0,0" transform="translate(-47.371 0)" fill="#fff"/><path d="M1.083,328.879a2.276,2.276,0,0,0,2.047,1.265,2.3,2.3,0,0,0,1.024-.241l.411-.206.412.206A2.3,2.3,0,0,0,6,330.145a2.276,2.276,0,0,0,2.047-1.265l.177-.355a8.629,8.629,0,0,0,.906-3.836,2.649,2.649,0,0,0-4.058-2.254v-.406A2.029,2.029,0,0,0,3.043,320v1.014a1.015,1.015,0,0,1,1.014,1.014v.406A2.649,2.649,0,0,0,0,324.688a8.627,8.627,0,0,0,.906,3.837Zm1.576-5.836a1.634,1.634,0,0,1,1.163.482l.384.384a.507.507,0,0,0,.717,0l.384-.384a1.645,1.645,0,0,1,2.808,1.163,7.6,7.6,0,0,1-.8,3.384l-.177.355a1.268,1.268,0,0,1-1.14.7A1.282,1.282,0,0,1,5.43,329l-.638-.319a.507.507,0,0,0-.453,0L3.7,329a1.283,1.283,0,0,1-.57.134,1.268,1.268,0,0,1-1.14-.7l-.177-.355a7.6,7.6,0,0,1-.8-3.382,1.647,1.647,0,0,1,1.645-1.645Zm0,0" transform="translate(0 -299.712)" fill="#fff"/></g></svg>