<svg xmlns="http://www.w3.org/2000/svg" width="25.929" height="27.781" viewBox="0 0 25.929 27.781"><g transform="translate(-32 -16)"><path d="M57.522,24.278,57,23.759V21.093a.463.463,0,0,0-.463-.463H53.874l-.982-.982a1.38,1.38,0,0,0-.982-.407H49.132v-.463A2.781,2.781,0,0,0,46.354,16H36.167a2.781,2.781,0,0,0-2.778,2.778V39.151h-.926a.463.463,0,0,0-.463.463v3.7a.463.463,0,0,0,.463.463H50.521v-.926H32.926V40.077H48.669a.463.463,0,0,0,.463-.463V32.206h.463a.464.464,0,0,1,.463.463v7.177a3.936,3.936,0,1,0,7.871,0V25.26A1.38,1.38,0,0,0,57.522,24.278ZM52.237,20.3l1.118,1.118a.463.463,0,0,0,.327.136h2.395v2.395a.463.463,0,0,0,.136.327l.655.655A.46.46,0,0,1,57,25.26v5.556h-.926V25.644a.463.463,0,0,0-.136-.327l-1.31-1.31a.463.463,0,0,0-.327-.136H51.913c0-1.26,0-2.316,0-2.316a.463.463,0,0,0-.463-.462h-.463v-.926h.926a.46.46,0,0,1,.327.136Zm-2.643,9.125h-.463V22.019h1.853c0,.512,0,4.868,0,5.552a1.852,1.852,0,0,0,1.852,1.857h2.313V39.846a1.158,1.158,0,1,1-2.315,0V32.669a3.245,3.245,0,0,0-3.241-3.241Zm4.518-4.63,1.038,1.038v.814H53.762V24.8ZM53.3,27.576h1.852V28.5H52.838a.926.926,0,0,1-.926-.928c0-.571,0-1.893,0-2.776h.922v2.315A.463.463,0,0,0,53.3,27.576Zm-3.241-7.408v.926h-.926v-.926ZM34.315,39.151V18.778a1.854,1.854,0,0,1,1.852-1.852H46.354a1.854,1.854,0,0,1,1.852,1.852V39.151ZM57,39.846a3.01,3.01,0,1,1-6.019,0V32.669a1.391,1.391,0,0,0-1.389-1.389h-.463v-.926h.463a2.318,2.318,0,0,1,2.315,2.315v7.177a2.084,2.084,0,1,0,4.167,0v-8.1H57Z" fill="#f1f3f4"/><path d="M106.649,64H96.463a.463.463,0,0,0-.463.463v7.408a.463.463,0,0,0,.463.463h10.186a.463.463,0,0,0,.463-.463V64.463A.463.463,0,0,0,106.649,64Zm-.463,7.408h-9.26V64.926h9.26Z" transform="translate(-60.296 -45.222)" fill="#f1f3f4"/><path d="M136,128h.926v.926H136Z" transform="translate(-97.981 -105.518)" fill="#f1f3f4"/><path d="M168,128h.926v.926H168Z" transform="translate(-128.127 -105.518)" fill="#f1f3f4"/><path d="M200,128h.926v.926H200Z" transform="translate(-158.277 -105.518)" fill="#f1f3f4"/><path d="M232,128h.926v.926H232Z" transform="translate(-188.423 -105.518)" fill="#f1f3f4"/><path d="M148.7,254.7a2.527,2.527,0,0,0,4.422-2.426l-1.871-4.008a.463.463,0,0,0-.839,0l-1.87,4.008A2.515,2.515,0,0,0,148.7,254.7Zm.681-2.035,1.451-3.109,1.451,3.109a1.6,1.6,0,1,1-2.9,0Z" transform="translate(-109.576 -218.571)" fill="#f1f3f4"/></g></svg>