<svg xmlns="http://www.w3.org/2000/svg" width="28.738" height="27.292" viewBox="0 0 28.738 27.292"><g transform="translate(0)"><path d="M27.727,12.882h-1.2a1.011,1.011,0,0,0-1.01,1.01v3.276h-.456v-.027a1.134,1.134,0,0,0-1.132-1.132H22.216a1.134,1.134,0,0,0-1.132,1.132v.027h-3.64v-.279a2.855,2.855,0,0,0-2.851-2.851h-.446a2.855,2.855,0,0,0-2.851,2.851v.279H7.654v-.027a1.134,1.134,0,0,0-1.132-1.132H4.809a1.134,1.134,0,0,0-1.132,1.132v.027H3.221V13.892a1.011,1.011,0,0,0-1.01-1.01H1.01A1.011,1.011,0,0,0,0,13.892v1.9a.421.421,0,0,0,.842,0v-1.9a.169.169,0,0,1,.168-.168h1.2a.169.169,0,0,1,.168.168v7.394a.169.169,0,0,1-.168.168H1.01a.169.169,0,0,1-.168-.168V17.754a.421.421,0,0,0-.842,0v3.532A1.011,1.011,0,0,0,1.01,22.3h1.2a1.011,1.011,0,0,0,1.01-1.01V18.01H3.7a1.338,1.338,0,0,0,.389.7V24.1a1.4,1.4,0,0,0,.663,1.226,1.791,1.791,0,0,0,1.738,0,16.915,16.915,0,0,0,3.03-1.954,3.906,3.906,0,0,0,.389.707,3.718,3.718,0,0,1,.648,1.964,1.83,1.83,0,0,0-2.538,1.447l-.29,2.234a5.211,5.211,0,0,0,.223,2.3A4.333,4.333,0,0,1,8.178,33.4v2.879L7.129,38.037a1.412,1.412,0,0,0,1.212,2.136h2.146a1.412,1.412,0,0,0,1.391-1.656L11.5,36.361V33.4a4.33,4.33,0,0,1,.194-1.281,4.249,4.249,0,0,0,1.536.288h2.278a4.25,4.25,0,0,0,1.536-.288,4.33,4.33,0,0,1,.194,1.281v2.958l-.379,2.156a1.412,1.412,0,0,0,1.391,1.656H20.4a1.412,1.412,0,0,0,1.212-2.136l-1.049-1.756v-.81a.421.421,0,0,0-.842,0v.505H18.08V33.4a5.172,5.172,0,0,0-.266-1.638,4.365,4.365,0,0,1-.187-1.93l.29-2.234a.99.99,0,0,1,1.963,0l.29,2.234a4.365,4.365,0,0,1-.187,1.93,5.173,5.173,0,0,0-.266,1.638v.1a.421.421,0,0,0,.842,0v-.1a4.332,4.332,0,0,1,.223-1.372,5.212,5.212,0,0,0,.223-2.3l-.29-2.234a1.83,1.83,0,0,0-2.538-1.447,3.718,3.718,0,0,1,.649-1.964,3.911,3.911,0,0,0,.389-.707,16.913,16.913,0,0,0,3.03,1.954,1.79,1.79,0,0,0,1.737,0,1.4,1.4,0,0,0,.663-1.226V18.712a1.338,1.338,0,0,0,.389-.7h.482v3.276a1.011,1.011,0,0,0,1.01,1.01h1.2a1.011,1.011,0,0,0,1.01-1.01V13.892a1.011,1.011,0,0,0-1.01-1.01ZM22.216,16.85h1.712a.291.291,0,0,1,.29.29v.6a.5.5,0,0,1-.5.5h-1.3a.5.5,0,0,1-.5-.5v-.6A.291.291,0,0,1,22.216,16.85ZM21.111,18.01a1.344,1.344,0,0,0,.834.984v1.264A4.859,4.859,0,0,0,20.331,19a3.585,3.585,0,0,0-1.581-.36H17.411a2.872,2.872,0,0,0,.032-.429v-.2h3.667Zm-3.18,5.913a4.634,4.634,0,0,0-.6,2.313v.055a2.633,2.633,0,0,0-1.524,1.318.352.352,0,0,1-.315.194H13.246a.352.352,0,0,1-.315-.194,2.633,2.633,0,0,0-1.524-1.318v-.055a4.634,4.634,0,0,0-.6-2.313,11.76,11.76,0,0,0,.388-4.446H11.6a2.77,2.77,0,0,0,.461.645,4.623,4.623,0,0,0-.068.793c0,1.861,1.042,3.318,2.373,3.318s2.373-1.458,2.373-3.318a4.62,4.62,0,0,0-.069-.8,2.977,2.977,0,0,0,.462-.639h.408a11.762,11.762,0,0,0,.388,4.446Zm-3.918-2.708h.713a1.908,1.908,0,0,0,1.171-.4c0,.034,0,.068,0,.1,0,1.342-.7,2.476-1.531,2.476s-1.531-1.134-1.531-2.476c0-.034,0-.068,0-.1a1.908,1.908,0,0,0,1.171.4Zm-1.876-4.326a2.012,2.012,0,0,1,2.009-2.01h.446a2.012,2.012,0,0,1,2.01,2.01v1.317a2.119,2.119,0,0,1-.957,1.71,2.442,2.442,0,0,0-.233.207,1.067,1.067,0,0,1-.686.249h-.713a1.067,1.067,0,0,1-.7-.264l-.515-.451a1.929,1.929,0,0,1-.658-1.452Zm-.808,1.746H9.99a3.653,3.653,0,0,0-1.67.4,4.856,4.856,0,0,0-1.527,1.219V18.994a1.344,1.344,0,0,0,.834-.984h3.667v.2A2.774,2.774,0,0,0,11.328,18.636ZM4.518,17.141a.291.291,0,0,1,.29-.29H6.521a.291.291,0,0,1,.29.29v.6a.5.5,0,0,1-.5.5h-1.3a.5.5,0,0,1-.5-.5v-.6Zm5.238,5.341a.728.728,0,0,0-.653.146,15.926,15.926,0,0,1-3,1.952.963.963,0,0,1-.913.028.551.551,0,0,1-.259-.507V19.08l.081,0h.936V21.22a.545.545,0,0,0,1.021.264,4.086,4.086,0,0,1,1.734-1.7,2.807,2.807,0,0,1,1.284-.309h.362a14.165,14.165,0,0,1-.13,3.385.73.73,0,0,0-.466-.38ZM8.567,29.834l.29-2.234a.99.99,0,0,1,1.963,0l.29,2.234a4.365,4.365,0,0,1-.187,1.93,5.172,5.172,0,0,0-.266,1.638v2.574H9.02V33.4a5.172,5.172,0,0,0-.266-1.638,4.364,4.364,0,0,1-.187-1.93Zm2.357,9.294a.569.569,0,0,1-.437.2H8.341a.57.57,0,0,1-.489-.863l.986-1.65h1.887l.324,1.844a.569.569,0,0,1-.125.465Zm2.306-7.561a3.4,3.4,0,0,1-1.323-.268,5.209,5.209,0,0,0,.038-1.573s-.305-2.335-.316-2.384a1.8,1.8,0,0,1,.55.648,1.19,1.19,0,0,0,1.067.657h2.245a1.19,1.19,0,0,0,1.067-.657,1.8,1.8,0,0,1,.55-.647c-.011.049-.02.1-.026.15l-.29,2.235a5.209,5.209,0,0,0,.038,1.573,3.4,3.4,0,0,1-1.323.268Zm6.67,5.251.986,1.65a.57.57,0,0,1-.489.863H18.25a.57.57,0,0,1-.562-.669l.324-1.844H19.9ZM23.8,24.1a.551.551,0,0,1-.259.507.962.962,0,0,1-.913-.028,15.923,15.923,0,0,1-3-1.952.727.727,0,0,0-1.118.235,14.168,14.168,0,0,1-.13-3.385h.365a2.739,2.739,0,0,1,1.208.272,4.087,4.087,0,0,1,1.807,1.734.545.545,0,0,0,1.021-.264V19.082s.99,0,1.017,0V24.1ZM27.9,21.286a.169.169,0,0,1-.168.168h-1.2a.169.169,0,0,1-.168-.168V13.892a.169.169,0,0,1,.168-.168h1.2a.169.169,0,0,1,.168.168Z" transform="translate(0 -12.882)" fill="#fff"/></g></svg>