<svg xmlns="http://www.w3.org/2000/svg" width="30.428" height="29.886" viewBox="0 0 30.428 29.886"><g transform="translate(0 0)"><g transform="translate(0 13.799)"><path d="M44.548,254.016h-28.3a.507.507,0,0,1-.507-.507V238.437a.507.507,0,0,1,.507-.507h28.3a.507.507,0,0,1,.507.507V253.51A.507.507,0,0,1,44.548,254.016ZM16.753,253H44.042v-14.06H16.753Z" transform="translate(-15.74 -237.93)" fill="#fff"/></g><g transform="translate(13.964 5.598)"><path d="M251.134,117.614H236.8a.507.507,0,0,1-.507-.507v-8.2a.507.507,0,0,1,.507-.507h14.338a.507.507,0,0,1,.507.507v8.2A.507.507,0,0,1,251.134,117.614ZM237.3,116.6h13.325v-7.188H237.3Z" transform="translate(-236.29 -108.4)" fill="#fff"/></g><g transform="translate(1.045 7.372)"><path d="M45.663,140.029H32.743a.507.507,0,0,1-.425-.781l1.672-2.6a.506.506,0,0,1,.426-.232H45.663a.507.507,0,1,1,0,1.013H34.691l-1.019,1.583H45.663a.507.507,0,1,1,0,1.013Z" transform="translate(-32.237 -136.42)" fill="#fff"/></g><g transform="translate(12.851 0)"><path d="M235.786,26.6h-1.112a.507.507,0,0,1-.343-.879L227.5,21.1l-6.825,4.613a.507.507,0,0,1-.343.879h-1.112a.507.507,0,0,1-.284-.926l8.279-5.6a.507.507,0,0,1,.57,0l8.282,5.6a.507.507,0,0,1-.284.926Z" transform="translate(-218.716 -19.984)" fill="#fff"/></g><g transform="translate(2.345 9.968)"><path d="M53.287,182.264a.507.507,0,0,1-.507-.507v-3.831a.507.507,0,1,1,1.013,0v3.831A.507.507,0,0,1,53.287,182.264Z" transform="translate(-52.78 -177.42)" fill="#fff"/></g><g transform="translate(18.413 8.148)"><path d="M312.505,152.785h-5.439a.507.507,0,0,1-.507-.507v-3.1a.507.507,0,0,1,.507-.507h5.439a.506.506,0,0,1,.507.507v3.1A.506.506,0,0,1,312.505,152.785Zm-4.932-1.013H312v-2.089h-4.426Z" transform="translate(-306.56 -148.67)" fill="#fff"/></g><g transform="translate(21.133 8.148)"><path d="M350.017,152.785a.507.507,0,0,1-.507-.507v-3.1a.507.507,0,1,1,1.013,0v3.1A.507.507,0,0,1,350.017,152.785Z" transform="translate(-349.51 -148.67)" fill="#fff"/></g><g transform="translate(11.46 20.949)"><path d="M202.685,354.975h-5.438a.507.507,0,0,1-.507-.507v-3.1a.507.507,0,0,1,.507-.507h5.438a.507.507,0,0,1,.507.507v3.1A.507.507,0,0,1,202.685,354.975Zm-4.932-1.013h4.425v-2.089h-4.425Z" transform="translate(-196.74 -350.86)" fill="#fff"/></g><g transform="translate(14.179 20.949)"><path d="M240.186,354.975a.507.507,0,0,1-.507-.507v-3.1a.507.507,0,0,1,1.013,0v3.1A.507.507,0,0,1,240.186,354.975Z" transform="translate(-239.68 -350.86)" fill="#fff"/></g><g transform="translate(2.59 20.062)"><path d="M64.08,346.664a.506.506,0,0,1-.507-.507v-8.3h-5.91v8.3a.507.507,0,0,1-1.013,0v-8.811a.507.507,0,0,1,.507-.507H64.08a.507.507,0,0,1,.507.507v8.811A.506.506,0,0,1,64.08,346.664Z" transform="translate(-56.65 -336.84)" fill="#fff"/></g><g transform="translate(18.846 20.062)"><path d="M320.828,346.664a.507.507,0,0,1-.507-.507v-8.3h-5.909v8.3a.507.507,0,0,1-1.013,0v-8.811a.507.507,0,0,1,.507-.507h6.922a.507.507,0,0,1,.507.507v8.811A.507.507,0,0,1,320.828,346.664Z" transform="translate(-313.4 -336.84)" fill="#fff"/></g><g transform="translate(4.939 15.933)"><path d="M95.359,274.638a1.508,1.508,0,1,1,1.619-1.5A1.567,1.567,0,0,1,95.359,274.638Zm0-2a.5.5,0,1,0,.606.491A.558.558,0,0,0,95.359,272.643Z" transform="translate(-93.74 -271.63)" fill="#fff"/></g><g transform="translate(21.195 15.933)"><path d="M352.109,274.638a1.508,1.508,0,1,1,1.619-1.5A1.567,1.567,0,0,1,352.109,274.638Zm0-2a.5.5,0,1,0,.606.491A.558.558,0,0,0,352.109,272.643Z" transform="translate(-350.49 -271.63)" fill="#fff"/></g></g></svg>