<svg xmlns="http://www.w3.org/2000/svg" width="13.221" height="15.424" viewBox="0 0 13.221 15.424">
  <path id="pdf_icon" d="M15.206,5.474a2,2,0,0,1,.413.654,1.986,1.986,0,0,1,.172.757V16.8a.823.823,0,0,1-.826.826H3.4a.823.823,0,0,1-.826-.826V3.03A.823.823,0,0,1,3.4,2.2h7.712a1.987,1.987,0,0,1,.757.172,2,2,0,0,1,.654.413Zm-3.822-2.1V6.61h3.236a.94.94,0,0,0-.189-.353L11.737,3.563a.94.94,0,0,0-.353-.189ZM14.69,16.526V7.712H11.109a.823.823,0,0,1-.826-.826V3.305H3.672V16.526H14.69Zm-4.424-5.1a6.549,6.549,0,0,0,.723.482A8.541,8.541,0,0,1,12,11.844q1.265,0,1.523.422a.416.416,0,0,1,.017.448.025.025,0,0,1-.009.017l-.017.017v.009q-.052.327-.611.327a3.551,3.551,0,0,1-.99-.172,6.276,6.276,0,0,1-1.119-.456,15.5,15.5,0,0,0-3.374.714Q6.1,15.424,5.334,15.424a.5.5,0,0,1-.241-.06l-.207-.1-.052-.043a.356.356,0,0,1-.052-.31,1.869,1.869,0,0,1,.482-.788A4.16,4.16,0,0,1,6.4,13.29a.126.126,0,0,1,.2.052.05.05,0,0,1,.017.034q.448-.732.921-1.7a13.137,13.137,0,0,0,.9-2.255A6.958,6.958,0,0,1,8.17,8.052a3.347,3.347,0,0,1,.056-1.1q.095-.344.362-.344h.189a.363.363,0,0,1,.3.129.687.687,0,0,1,.077.585.187.187,0,0,1-.034.069.224.224,0,0,1,.009.069v.258a11.271,11.271,0,0,1-.121,1.653,4.355,4.355,0,0,0,1.257,2.049ZM5.308,14.959A3.8,3.8,0,0,0,6.487,13.6a4.907,4.907,0,0,0-.753.723A2.861,2.861,0,0,0,5.308,14.959ZM8.733,7.041a2.559,2.559,0,0,0-.017,1.136q.009-.06.06-.379,0-.026.06-.37a.194.194,0,0,1,.034-.069.025.025,0,0,1-.009-.017.017.017,0,0,0,0-.013.017.017,0,0,1,0-.013.5.5,0,0,0-.112-.31.025.025,0,0,1-.009.017v.017ZM7.666,12.73a12.625,12.625,0,0,1,2.444-.7A1.3,1.3,0,0,1,10,11.951a1.542,1.542,0,0,1-.138-.116A4.559,4.559,0,0,1,8.768,10.32a11.5,11.5,0,0,1-.714,1.7q-.258.482-.387.714Zm5.56-.138a2.06,2.06,0,0,0-1.205-.207,3.256,3.256,0,0,0,1.067.241.835.835,0,0,0,.155-.009q0-.009-.017-.026Z" transform="translate(-2.571 -2.204)"/>
</svg>
